<svg width="24" height="25" viewBox="0 0 24 25" fill="none" xmlns="http://www.w3.org/2000/svg">
<path d="M11.9995 8.4082C14.0687 8.36663 15.6246 10.4694 15.1899 12.4521C15.2261 12.4143 15.2633 12.3772 15.2983 12.3379H15.2993L15.3003 12.3359C15.3017 12.3344 15.3044 12.3322 15.3071 12.3291C15.3126 12.323 15.3201 12.3135 15.3306 12.3018C15.3516 12.278 15.383 12.2434 15.4224 12.1992C15.5011 12.1107 15.6136 11.9838 15.7485 11.832C16.0188 11.5281 16.3794 11.1221 16.7397 10.7168C17.1001 10.3116 17.4607 9.90649 17.731 9.60254C17.8661 9.45055 17.9793 9.32401 18.0581 9.23535C18.0975 9.19102 18.1278 9.15558 18.1489 9.13184C18.1593 9.12013 18.1679 9.1116 18.1733 9.10547C18.1761 9.1024 18.1778 9.09922 18.1792 9.09766L18.1812 9.09668L18.1821 9.0957C18.9097 8.23547 20.3096 8.18138 21.105 8.97461L21.2524 9.12598C21.9441 9.91995 21.926 11.2322 21.1714 11.9863L21.1724 11.9873L17.0815 16.3047C16.763 16.6412 16.5864 17.0865 16.5864 17.5596V22.8125C16.5864 23.0747 16.3742 23.287 16.1118 23.2871H7.88721C7.62503 23.2869 7.4126 23.0747 7.4126 22.8125V17.5596C7.4126 17.0863 7.23623 16.641 6.91748 16.3047L2.82471 11.9854V11.9844C2.49601 11.6447 2.29544 11.2023 2.25049 10.7236L2.24072 10.5156C2.20546 8.65218 4.57829 7.65376 5.81982 9.09766H5.81885C5.8192 9.09805 5.82014 9.09886 5.8208 9.09961C5.82218 9.10116 5.82413 9.1036 5.82666 9.10645C5.83209 9.11255 5.84065 9.12109 5.85107 9.13281C5.87217 9.15654 5.90253 9.19206 5.94189 9.23633C6.02072 9.32497 6.13392 9.45156 6.26904 9.60352C6.53927 9.90741 6.89999 10.3126 7.26025 10.7178C7.62046 11.1228 7.98031 11.5282 8.25049 11.832C8.38562 11.984 8.49881 12.1106 8.57764 12.1992C8.60729 12.2326 8.63238 12.2603 8.65186 12.2822H8.65381L8.68115 12.3154C8.68599 12.3209 8.68974 12.3256 8.69287 12.3291C8.69369 12.33 8.69413 12.3312 8.69482 12.332L8.70264 12.3408C8.75307 12.4009 8.79869 12.4486 8.83545 12.4893C8.83052 12.4695 8.82621 12.4485 8.8208 12.4268C8.80412 12.3597 8.78545 12.2849 8.77002 12.208C8.74081 12.0625 8.72059 11.8987 8.74072 11.7559L8.74463 11.584C8.83185 9.82007 10.2549 8.40911 11.9976 8.4082V8.40723L11.9985 8.4082H11.9995ZM19.731 9.35156C19.4588 9.33923 19.1627 9.44314 18.8901 9.72852L16.0083 12.9697C15.4508 13.5955 14.7784 14.0692 14.0122 14.3828C13.4578 14.8322 12.7599 15.1035 11.9995 15.1035C11.2403 15.1035 10.5427 14.8338 9.98877 14.3857C9.22152 14.0721 8.54957 13.5961 7.9917 12.9697H7.99072L7.98975 12.9678C7.98836 12.9662 7.98564 12.964 7.98291 12.9609C7.97748 12.9548 7.96993 12.9454 7.95947 12.9336C7.93839 12.9099 7.90701 12.8753 7.86768 12.8311C7.78882 12.7424 7.67571 12.6149 7.54053 12.4629C7.2702 12.1589 6.90963 11.7538 6.54932 11.3486C6.18885 10.9433 5.82845 10.5374 5.55811 10.2334C5.44974 10.1115 5.3563 10.0056 5.28271 9.92285V9.93359L5.10596 9.72559C4.71513 9.26467 3.97855 9.23479 3.55127 9.66113L3.54834 9.66406C3.32309 9.86888 3.20142 10.1755 3.19385 10.4893C3.18728 10.7638 3.26818 11.0358 3.43311 11.2422L3.50928 11.3262L3.51123 11.3291L7.60693 15.6504C8.09429 16.1645 8.36279 16.8431 8.36279 17.5596V22.3379H15.6362V17.5596C15.6362 16.8433 15.9048 16.1647 16.3921 15.6504L20.4849 11.332L20.5728 11.2285C20.9758 10.7029 20.838 10.0824 20.4653 9.69922C20.2667 9.49502 20.0055 9.36401 19.731 9.35156ZM11.9995 9.35742C10.7299 9.35742 9.68994 10.4302 9.68994 11.7559C9.72034 12.5568 10.0189 13.1504 10.4448 13.5439C10.8727 13.9392 11.4356 14.1376 11.9995 14.1377C12.5633 14.1377 13.1254 13.9391 13.5532 13.5439C13.9792 13.1504 14.2776 12.557 14.3081 11.7559L14.2964 11.5107C14.1778 10.3004 13.1898 9.35751 11.9995 9.35742Z" fill="#FF99DC" stroke="#FF99DC" stroke-width="0.2"/>
<path d="M11.9998 1.71289C12.2054 1.71307 12.3874 1.8453 12.4509 2.04102L13.0408 3.8623H14.947C15.1525 3.8623 15.3352 3.99503 15.3992 4.19043C15.4626 4.38583 15.3938 4.6004 15.2273 4.72168L13.6824 5.84668C13.6837 5.85082 13.6858 5.8549 13.6873 5.85938C13.704 5.9111 13.7279 5.98556 13.7566 6.07422C13.814 6.25154 13.891 6.48821 13.9675 6.72461C14.0439 6.96073 14.1202 7.19685 14.1775 7.37402C14.2062 7.46269 14.2301 7.53715 14.2468 7.58887C14.2551 7.61451 14.2619 7.63461 14.2664 7.64844C14.2686 7.65536 14.2701 7.66146 14.2712 7.66504L14.2722 7.66699L14.2937 7.74707C14.3251 7.93293 14.231 8.10069 14.0974 8.19727C13.9449 8.30744 13.7201 8.33962 13.5388 8.19824V8.19727L11.9988 7.0752L10.4578 8.2002C10.2914 8.32157 10.0656 8.32146 9.89917 8.20117C9.73247 8.08038 9.66203 7.86588 9.72534 7.66992L10.3152 5.84668L8.77124 4.72168C8.60527 4.60044 8.53659 4.38596 8.60034 4.19043C8.66411 3.99495 8.8458 3.86231 9.05151 3.8623H10.9578L11.5476 2.04102C11.6112 1.84515 11.7939 1.71289 11.9998 1.71289ZM14.2478 7.62891C14.2115 7.62501 14.1822 7.6331 14.1589 7.64551C14.1633 7.65886 14.1669 7.67 14.1697 7.67871L14.2478 7.62891ZM11.7556 4.4834V4.48438C11.692 4.68011 11.5093 4.8125 11.3035 4.8125H10.5095L11.1531 5.28223C11.3188 5.40323 11.3889 5.61732 11.3259 5.8125L11.0798 6.57031L11.7195 6.10352L11.7849 6.06348C11.8522 6.02945 11.9262 6.0127 11.9998 6.0127C12.0978 6.01278 12.1958 6.04297 12.2791 6.10352L12.9177 6.56934L12.6736 5.8125C12.6106 5.61737 12.6794 5.40331 12.8455 5.28223L13.49 4.8125H12.6951C12.4892 4.81246 12.3063 4.6795 12.2429 4.4834L11.9988 3.73047L11.7556 4.4834Z" fill="#FF99DC" stroke="#FF99DC" stroke-width="0.2"/>
</svg>
