<svg width="24" height="25" viewBox="0 0 24 25" fill="none" xmlns="http://www.w3.org/2000/svg">
<path d="M12 24.5C8.79469 24.5 5.78123 23.2518 3.51469 20.9853C1.24814 18.7188 0 15.7053 0 12.5C0 9.29469 1.24819 6.28123 3.51469 4.01469C5.78119 1.74814 8.79469 0.5 12 0.5C15.2053 0.5 18.2188 1.74819 20.4853 4.01469C22.7519 6.28119 24 9.29469 24 12.5C24 15.7053 22.7518 18.7188 20.4853 20.9853C18.2188 23.2519 15.2053 24.5 12 24.5ZM12 2C6.21028 2 1.5 6.71028 1.5 12.5C1.5 18.2897 6.21028 23 12 23C17.7897 23 22.5 18.2897 22.5 12.5C22.5 6.71028 17.7897 2 12 2Z" fill="#FF99DC"/>
<path d="M12 17.75C11.5858 17.75 11.25 17.4142 11.25 17C11.25 15.1069 11.9872 13.3272 13.3259 11.9885C14.1636 11.1507 14.625 10.0369 14.625 8.85205C14.625 7.55511 13.5699 6.5 12.273 6.5H12.102C10.8051 6.5 9.75 7.55511 9.75 8.85205V9.125C9.75 9.53919 9.41419 9.875 9 9.875C8.58581 9.875 8.25 9.53919 8.25 9.125V8.85205C8.25 6.728 9.978 5 12.102 5H12.273C14.397 5 16.125 6.728 16.125 8.85205C16.125 10.4375 15.5076 11.9281 14.3865 13.0492C13.3312 14.1045 12.75 15.5076 12.75 17C12.75 17.4142 12.4142 17.75 12 17.75Z" fill="#FF99DC"/>
<path d="M12.001 20.75C11.5868 20.75 11.2507 20.4142 11.2507 20C11.2507 19.5858 11.5863 19.25 12.0005 19.25H12.001C12.4152 19.25 12.751 19.5858 12.751 20C12.751 20.4142 12.4152 20.75 12.001 20.75Z" fill="#FF99DC"/>
</svg>
