<svg width="24" height="25" viewBox="0 0 24 25" fill="none" xmlns="http://www.w3.org/2000/svg">
<path d="M9.75 13.8125C9.75 14.3304 9.33038 14.75 8.8125 14.75C8.29462 14.75 7.875 14.3304 7.875 13.8125V11.1875C7.875 10.6696 8.29462 10.25 8.8125 10.25C9.33038 10.25 9.75 10.6696 9.75 11.1875V13.8125Z" stroke="#FF99DC" stroke-width="1.1" stroke-miterlimit="10" stroke-linecap="round" stroke-linejoin="round"/>
<path d="M13.125 11.5625C13.125 12.0804 12.7054 12.5 12.1875 12.5H11.25V10.25H12.1875C12.7054 10.25 13.125 10.6696 13.125 11.1875V11.5625Z" stroke="#FF99DC" stroke-width="1.1" stroke-miterlimit="10" stroke-linecap="round" stroke-linejoin="round"/>
<path d="M19.875 10.25L18.75 12.5L17.625 10.25" stroke="#FF99DC" stroke-width="1.1" stroke-miterlimit="10" stroke-linecap="round" stroke-linejoin="round"/>
<path d="M4.5 13.8125C4.5 14.33 4.92 14.75 5.4375 14.75C5.955 14.75 6.375 14.33 6.375 13.8125C6.375 13.55 6.26625 13.3137 6.09375 13.1412V13.1428L4.78163 11.8569V11.8584C4.60875 11.6862 4.5 11.45 4.5 11.1875C4.5 10.67 4.92 10.25 5.4375 10.25C5.955 10.25 6.375 10.67 6.375 11.1875" stroke="#FF99DC" stroke-width="1.1" stroke-miterlimit="10" stroke-linecap="round" stroke-linejoin="round"/>
<path d="M11.25 12.5V14.75" stroke="#FF99DC" stroke-width="1.1" stroke-miterlimit="10" stroke-linecap="round" stroke-linejoin="round"/>
<path d="M12 12.5L13.125 14.75" stroke="#FF99DC" stroke-width="1.1" stroke-miterlimit="10" stroke-linecap="round" stroke-linejoin="round"/>
<path d="M16.5 11.5625C16.5 12.0804 16.0804 12.5 15.5625 12.5H14.625V10.25H15.5625C16.0804 10.25 16.5 10.6696 16.5 11.1875V11.5625Z" stroke="#FF99DC" stroke-width="1.1" stroke-miterlimit="10" stroke-linecap="round" stroke-linejoin="round"/>
<path d="M14.625 12.5V14.75" stroke="#FF99DC" stroke-width="1.1" stroke-miterlimit="10" stroke-linecap="round" stroke-linejoin="round"/>
<path d="M15.375 12.5L16.5 14.75" stroke="#FF99DC" stroke-width="1.1" stroke-miterlimit="10" stroke-linecap="round" stroke-linejoin="round"/>
<path d="M18.75 12.5V14.75" stroke="#FF99DC" stroke-width="1.1" stroke-miterlimit="10" stroke-linecap="round" stroke-linejoin="round"/>
<path d="M3.51 18.0162L1.875 22.625L6.48375 20.99C8.07 22.025 9.96375 22.625 12 22.625C17.5912 22.625 22.125 18.0912 22.125 12.5C22.125 6.90875 17.5912 2.375 12 2.375C6.40875 2.375 1.875 6.90875 1.875 12.5C1.875 14.5362 2.475 16.43 3.51 18.0162Z" stroke="#FF99DC" stroke-width="1.1" stroke-miterlimit="10" stroke-linecap="round" stroke-linejoin="round"/>
</svg>
