<svg width="23" height="23" viewBox="0 0 23 23" fill="none" xmlns="http://www.w3.org/2000/svg">
<g clip-path="url(#clip0_169_3295)">
<path d="M18.0016 8.24344C17.1648 7.97965 16.2577 8.15152 15.5867 8.65739C14.918 8.15741 14.0136 7.98922 13.1774 8.25278C12.1705 8.5702 11.5449 9.42847 11.5449 10.4927C11.5449 11.8932 12.7004 12.7934 14.2994 14.0393C15.1679 14.7159 15.1832 14.7369 15.5879 15.0583C16.022 14.7135 16.0079 14.7158 16.8763 14.0393C18.4754 12.7934 19.6309 11.8932 19.6309 10.4927C19.6309 9.42205 19.0066 8.56022 18.0016 8.24344ZM15.5879 13.3357C13.9609 12.0577 12.8926 11.3099 12.8926 10.4927C12.8926 9.85137 13.3249 9.61935 13.5826 9.53808C14.0745 9.38306 14.7063 9.52896 15.0359 9.9997L15.5879 10.7883L16.1399 9.9997C16.4901 9.49945 17.1378 9.38414 17.5965 9.52874C17.8529 9.6096 18.2832 9.84229 18.2832 10.4927C18.2832 11.316 17.195 12.0733 15.5879 13.3357Z" fill="#FF99DC"/>
<path d="M6.1543 18.957H7.50195V20.3047H6.1543V18.957Z" fill="#FF99DC"/>
<path d="M16.9355 5.43555H14.2402C14.0125 5.43555 13.7877 5.44862 13.5664 5.47319V2.02148C13.5664 0.906838 12.6596 0 11.5449 0H2.02148C0.906838 0 0 0.906838 0 2.02148V20.9785C0 22.0932 0.906838 23 2.02148 23H11.5449C12.6596 23 13.5664 22.0932 13.5664 20.9785V17.5645H16.9355C20.2795 17.5645 23 14.8439 23 11.5C23 8.15606 20.2795 5.43555 16.9355 5.43555ZM12.2188 20.9785C12.2188 21.3501 11.9165 21.6523 11.5449 21.6523H2.02148C1.64994 21.6523 1.34766 21.3501 1.34766 20.9785V2.02148C1.34766 1.64994 1.64994 1.34766 2.02148 1.34766H11.5449C11.9165 1.34766 12.2188 1.64994 12.2188 2.02148V5.78243C9.86574 6.61681 8.17578 8.86461 8.17578 11.5C8.17578 12.8932 8.64238 14.2146 9.50156 15.2858L7.22281 17.5645H12.2188V20.9785ZM16.9355 16.2168H10.4764L11.3815 15.3118C11.1968 15.0582 9.52344 13.903 9.52344 11.5C9.52344 8.89916 11.6394 6.7832 14.2402 6.7832H16.9355C19.5364 6.7832 21.6523 8.89916 21.6523 11.5C21.6523 14.1008 19.5364 16.2168 16.9355 16.2168Z" fill="#FF99DC"/>
<path d="M6.1543 2.69531H7.50195V4.04297H6.1543V2.69531Z" fill="#FF99DC"/>
</g>
<defs>
<clipPath id="clip0_169_3295">
<rect width="23" height="23" fill="white"/>
</clipPath>
</defs>
</svg>
