<svg width="20" height="21" viewBox="0 0 20 21" fill="none" xmlns="http://www.w3.org/2000/svg">
<path d="M11.9922 2H8.00781C4.43781 2 1.5 4.90461 1.5 8.47461V9.4707C1.5 12.9502 4.29192 15.798 7.73737 15.94L9.58559 18.7782C9.678 18.9168 9.83365 19 9.99997 19C10.1663 19 10.3219 18.9168 10.4143 18.7782L12.2626 15.94C15.7081 15.798 18.5 12.9502 18.5 9.4707V8.47461C18.5 4.90461 15.5622 2 11.9922 2Z" fill="url(#paint0_linear_44_1285)"/>
<path d="M11.7432 5.98438C10.8949 5.98438 10.3424 6.4372 10 6.89633C9.65761 6.4372 9.10508 5.98438 8.25684 5.98438C7.00003 5.98438 6.01562 7.02523 6.01562 8.35398C6.01562 10.0481 7.6622 11.1116 9.67607 12.8374C9.76947 12.9171 9.88425 12.957 10 12.957C10.1157 12.957 10.2305 12.9172 10.3239 12.8374C12.4454 11.0194 13.9844 10.0256 13.9844 8.35398C13.9844 7.02523 13 5.98438 11.7432 5.98438Z" fill="url(#paint1_linear_44_1285)"/>
<defs>
<linearGradient id="paint0_linear_44_1285" x1="10" y1="19" x2="10" y2="2" gradientUnits="userSpaceOnUse">
<stop stop-color="#FD3A84"/>
<stop offset="1" stop-color="#FFA68D"/>
</linearGradient>
<linearGradient id="paint1_linear_44_1285" x1="10" y1="12.957" x2="10" y2="5.98438" gradientUnits="userSpaceOnUse">
<stop stop-color="#FFC2CC"/>
<stop offset="1" stop-color="#FFF2F4"/>
</linearGradient>
</defs>
</svg>
