<svg width="24" height="25" viewBox="0 0 24 25" fill="none" xmlns="http://www.w3.org/2000/svg">
<g clip-path="url(#clip0_45_1328)">
<path d="M1.84724 12.643H22.1528C23.1748 12.643 24 13.4729 24 14.4902V22.6528C24 23.6748 23.1702 24.5 22.1528 24.5H1.84724C0.82985 24.5047 0 23.6748 0 22.6575V14.4902C0 13.4729 0.82985 12.643 1.84724 12.643Z" fill="url(#paint0_linear_45_1328)"/>
<path d="M4.14931 19.4505C3.64765 19.4505 3.25382 19.4037 2.95845 19.3052C2.66308 19.2067 2.44273 19.0848 2.2927 18.9301C2.14736 18.7942 2.04421 18.616 1.99733 18.4238C1.95513 18.2503 1.93169 18.0721 1.927 17.8893C1.927 17.6408 1.97389 17.397 2.06765 17.1673C2.16142 16.9422 2.2927 16.7406 2.45679 16.5625C2.62089 16.389 2.8178 16.2484 3.03347 16.1499C3.25851 16.0468 3.50231 15.9952 3.7508 15.9952C4.05085 15.9952 4.30403 16.0468 4.51501 16.1546C4.70254 16.2437 4.8807 16.3609 5.03542 16.4968C5.18545 16.6469 5.31673 16.8157 5.41518 17.0032L4.30872 18.1565C4.22433 18.0628 4.13056 17.9737 4.02741 17.8987C3.93833 17.833 3.84456 17.7768 3.74611 17.7299C3.64296 17.6783 3.53044 17.6502 3.41323 17.6502C3.33353 17.6455 3.25382 17.6736 3.19287 17.7252C3.14599 17.7721 3.11786 17.833 3.11786 17.8987C3.11786 18.0112 3.17881 18.0956 3.30071 18.1425C3.45074 18.1987 3.60077 18.2316 3.76017 18.255C3.94302 18.2831 4.13993 18.3113 4.3556 18.3441C4.56189 18.3769 4.76349 18.4378 4.95103 18.5316C5.13388 18.6207 5.29328 18.7567 5.4105 18.9254C5.53239 19.0989 5.59334 19.3333 5.59334 19.6381C5.58397 19.9897 5.45269 20.3273 5.22296 20.5945C5.07293 20.7633 4.89477 20.8946 4.68848 20.9883C4.46812 21.0962 4.1962 21.1524 3.86801 21.1524C3.59139 21.1571 3.31008 21.129 3.03816 21.0727C2.85062 21.0305 2.66308 20.9743 2.48961 20.8946C2.34427 20.8336 2.20831 20.7445 2.0911 20.6367L2.3724 19.4505C2.574 19.5068 2.78029 19.549 2.99127 19.5818C3.14599 19.6053 3.3054 19.6146 3.46011 19.6193C3.57264 19.6193 3.68047 19.6146 3.79299 19.5959C3.86332 19.5818 3.93833 19.5631 4.00397 19.5349C4.05554 19.5115 4.10712 19.4834 4.14931 19.4505Z" fill="url(#paint1_linear_45_1328)"/>
<path d="M7.63285 21.1525C7.33748 21.1571 7.04211 21.0821 6.78425 20.9321C6.54045 20.7868 6.32947 20.5899 6.17007 20.3507C6.00129 20.1023 5.8747 19.8256 5.79968 19.535C5.71529 19.2302 5.6731 18.9161 5.6731 18.5973C5.6731 18.2832 5.71529 17.9737 5.80437 17.6737C5.88407 17.383 6.01535 17.1111 6.18882 16.8673C6.36229 16.6328 6.58265 16.4359 6.84051 16.2953C7.10306 16.1499 7.4125 16.0796 7.76882 16.0796C8.35018 16.0608 8.89873 16.3281 9.23629 16.8016C9.40039 17.0267 9.5176 17.2845 9.58792 17.5564C9.66294 17.8424 9.70513 18.1378 9.70513 18.4332C9.70513 18.7661 9.65825 19.0989 9.56917 19.4177C9.48478 19.7272 9.34881 20.0226 9.17065 20.2898C9.00187 20.543 8.77683 20.7539 8.51896 20.9134C8.25172 21.0728 7.94229 21.1571 7.63285 21.1525ZM7.71256 17.5846C7.63285 17.5846 7.55784 17.6221 7.50627 17.6783C7.44063 17.7534 7.38906 17.8424 7.35624 17.9362C7.31404 18.0534 7.28122 18.1753 7.26716 18.3019C7.22965 18.5785 7.22965 18.8598 7.26716 19.1364C7.28122 19.2583 7.30935 19.3802 7.35155 19.5021C7.37968 19.5959 7.42656 19.685 7.48751 19.7647C7.52971 19.8256 7.60003 19.8631 7.67505 19.8631C7.75475 19.8631 7.82977 19.821 7.87665 19.7553C7.94229 19.6709 7.98917 19.5772 8.02199 19.474C8.06419 19.3474 8.09701 19.2161 8.11576 19.0849C8.13451 18.9395 8.14389 18.7895 8.14389 18.6395C8.14389 18.5082 8.13451 18.3722 8.12045 18.241C8.10638 18.1284 8.07825 18.0159 8.04075 17.9034C8.01262 17.819 7.96573 17.7393 7.90947 17.669C7.8579 17.6174 7.78757 17.5846 7.71256 17.5846Z" fill="url(#paint2_linear_45_1328)"/>
<path d="M10.0472 21.1149C10.0519 20.9508 10.0519 20.7914 10.0519 20.6273V20.1444C10.0519 19.6287 10.0426 19.1364 10.0285 18.6629C10.0144 18.1893 9.99567 17.7674 9.97692 17.3923C9.95348 16.961 9.92535 16.5531 9.89722 16.1686L11.6179 16.0749C11.6132 16.1124 11.6085 16.1499 11.6085 16.1874V16.2577C11.6085 16.2952 11.6085 16.3327 11.6038 16.3702C11.6976 16.2671 11.8101 16.178 11.9273 16.1077C12.0773 16.0233 12.2508 15.9811 12.4243 15.9905C12.6306 15.9858 12.8369 16.028 13.0244 16.1171C13.1885 16.1968 13.3385 16.314 13.451 16.4546C13.5682 16.5953 13.6526 16.7594 13.7042 16.9375C13.7605 17.1204 13.7886 17.3079 13.7886 17.5002C13.7886 17.7955 13.7277 18.0909 13.6104 18.3628C13.4979 18.6347 13.3104 18.8692 13.076 19.038C13.1228 19.1974 13.1885 19.3474 13.2635 19.4974C13.3338 19.6334 13.4135 19.7647 13.5026 19.8912C13.5917 20.0225 13.6855 20.1491 13.7886 20.271L12.5649 21.143C12.3915 21.0211 12.2461 20.8664 12.1289 20.6883C12.0211 20.5242 11.9273 20.346 11.8523 20.1632C11.7866 19.9991 11.7304 19.8303 11.6929 19.6568C11.6601 19.4974 11.6366 19.3661 11.6226 19.2583C11.6179 19.2536 11.6085 19.2489 11.5991 19.2536H11.5757C11.5663 19.2536 11.5616 19.2489 11.5569 19.2489C11.5616 19.5021 11.5663 19.7318 11.571 19.9475C11.5757 20.1632 11.585 20.346 11.5944 20.5007C11.5991 20.6836 11.6085 20.8477 11.6179 20.993L10.0472 21.1149ZM11.8476 17.3126C11.7913 17.3126 11.7398 17.3267 11.6929 17.3595C11.6507 17.3923 11.6179 17.4345 11.5991 17.4861C11.5757 17.5423 11.5616 17.6033 11.5569 17.6596C11.5475 17.7252 11.5475 17.7955 11.5475 17.8612C11.5475 17.9455 11.5475 18.0299 11.5522 18.1096C11.5569 18.1893 11.5569 18.2597 11.5569 18.3253C11.5616 18.3722 11.5757 18.4191 11.5944 18.4613C11.6132 18.4941 11.6366 18.5269 11.6601 18.5504C11.6882 18.5785 11.7257 18.5926 11.7679 18.5879C11.8195 18.5879 11.871 18.5644 11.9039 18.5222C11.9461 18.4707 11.9789 18.4144 12.0023 18.3488C12.0304 18.2691 12.0492 18.1893 12.0633 18.1096C12.0773 18.0253 12.0867 17.9362 12.0867 17.8471C12.0867 17.7205 12.068 17.5892 12.0258 17.4673C11.9883 17.3689 11.9273 17.3126 11.8476 17.3126Z" fill="url(#paint3_linear_45_1328)"/>
<path d="M14.1871 21.1149C14.1918 20.9508 14.1918 20.7914 14.1918 20.6273V20.1444C14.1918 19.6287 14.1825 19.1364 14.1684 18.6629C14.1543 18.1893 14.1356 17.7674 14.1168 17.3923C14.0934 16.961 14.0652 16.5531 14.0371 16.1686L15.7578 16.0749C15.7531 16.1124 15.7531 16.1499 15.7531 16.1874V16.2577C15.7531 16.2952 15.7531 16.3327 15.7484 16.3702C15.8421 16.2671 15.9547 16.178 16.0719 16.1077C16.2219 16.0233 16.3954 15.9811 16.5689 15.9905C16.7751 15.9858 16.9814 16.028 17.169 16.1218C17.3331 16.2015 17.4831 16.3187 17.5956 16.4593C17.7128 16.6 17.7972 16.7641 17.8488 16.9422C17.9051 17.1251 17.9332 17.3126 17.9332 17.5048C17.9332 17.8002 17.8722 18.0956 17.755 18.3675C17.6425 18.6394 17.455 18.8739 17.2205 19.0426C17.2674 19.202 17.3284 19.3521 17.4081 19.5021C17.4784 19.6381 17.5581 19.7693 17.6472 19.8959C17.7363 20.0272 17.83 20.1538 17.9332 20.2757L16.7095 21.1477C16.536 21.0258 16.3907 20.8711 16.2735 20.693C16.1657 20.5289 16.0719 20.3507 15.9922 20.1679C15.9265 20.0038 15.8703 19.835 15.8328 19.6615C15.8 19.5021 15.7765 19.3708 15.7624 19.263C15.7578 19.2583 15.7484 19.2536 15.739 19.2583H15.7156C15.7062 19.2583 15.7015 19.2536 15.6921 19.2536C15.6968 19.5068 15.7015 19.7365 15.7062 19.9522C15.7109 20.1632 15.7203 20.3507 15.7296 20.5054C15.7343 20.6883 15.7437 20.8524 15.7531 20.9977L14.1871 21.1149ZM15.9875 17.3126C15.9312 17.3126 15.8797 17.3267 15.8328 17.3595C15.7906 17.3923 15.7578 17.4345 15.739 17.4861C15.7156 17.5423 15.7015 17.6033 15.6968 17.6596C15.6874 17.7252 15.6874 17.7955 15.6874 17.8612C15.6874 17.9455 15.6874 18.0299 15.6968 18.1096C15.7062 18.1893 15.7015 18.2597 15.7015 18.3253C15.7062 18.3722 15.7203 18.4191 15.739 18.4613C15.7578 18.4941 15.7765 18.5269 15.8093 18.5504C15.8375 18.5785 15.875 18.5926 15.9172 18.5879C15.9687 18.5879 16.0203 18.5644 16.0531 18.5222C16.0953 18.4707 16.1281 18.4144 16.1516 18.3488C16.1797 18.2691 16.1985 18.1893 16.2125 18.1096C16.2266 18.0253 16.236 17.9362 16.236 17.8471C16.2407 17.7205 16.2172 17.5892 16.175 17.4673C16.1281 17.3689 16.0672 17.3126 15.9875 17.3126Z" fill="url(#paint4_linear_45_1328)"/>
<path d="M19.3443 19.4224C19.1287 19.3662 18.9271 19.2677 18.7536 19.1317C18.6036 19.0098 18.477 18.8645 18.3832 18.7004C18.2894 18.541 18.2238 18.3628 18.191 18.1847C18.1535 18.0018 18.1394 17.8143 18.1394 17.6315C18.1394 17.4252 18.1535 17.2236 18.191 17.022C18.2238 16.8297 18.2613 16.6563 18.2988 16.5062C18.3457 16.3281 18.3973 16.164 18.4582 16.0046L19.9163 16.3046C19.8788 16.4406 19.846 16.5766 19.8225 16.7125C19.7991 16.8297 19.7757 16.9657 19.7569 17.111C19.7335 17.2564 19.7241 17.397 19.7241 17.5424C19.7241 17.6408 19.7288 17.7346 19.7475 17.8331C19.7616 17.9174 19.785 18.0018 19.8179 18.0815C19.846 18.1472 19.8976 18.2081 19.9585 18.2503C20.0241 18.2925 20.0992 18.316 20.1742 18.3113C20.2445 18.316 20.3195 18.2925 20.3805 18.255C20.4367 18.2175 20.4836 18.1612 20.5117 18.1003C20.5446 18.03 20.5727 17.955 20.5821 17.8799C20.5961 17.7909 20.6055 17.7018 20.6055 17.6127C20.6055 17.4627 20.5914 17.3126 20.568 17.1626C20.5446 17.0126 20.5164 16.8719 20.4883 16.7407C20.4555 16.5953 20.418 16.45 20.3758 16.3046L21.7636 16.0093C21.8292 16.178 21.8808 16.3515 21.9276 16.525C21.9652 16.6797 22.0027 16.8532 22.0355 17.0501C22.0683 17.2564 22.0871 17.4627 22.0871 17.669C22.0871 17.8518 22.0683 18.0393 22.0355 18.2175C22.0027 18.3957 21.937 18.5645 21.8479 18.7239C21.7542 18.8833 21.637 19.0286 21.4916 19.1458C21.3228 19.2771 21.1306 19.3755 20.9243 19.4318C20.9243 19.4834 20.9243 19.535 20.9196 19.5818C20.9149 19.6287 20.9149 19.6756 20.9149 19.7225C20.9149 19.91 20.9196 20.0835 20.9243 20.2429C20.9337 20.407 20.9384 20.5476 20.9478 20.6649C20.9525 20.8055 20.9618 20.9368 20.9759 21.0587L19.3959 21.1243C19.4006 21.0399 19.4006 20.9509 19.4006 20.8665V20.6086C19.4006 20.3882 19.3959 20.182 19.3865 19.9804C19.3725 19.7694 19.3584 19.5865 19.3443 19.4224Z" fill="url(#paint5_linear_45_1328)"/>
<path d="M15.0498 11.1239V11.1333C15.0498 11.3865 14.7028 11.4615 14.595 11.2318C14.0558 10.0878 13.0994 9.32828 12.0023 9.32828C10.9052 9.32828 9.94409 10.0878 9.40961 11.2318C9.30178 11.4615 8.95483 11.3865 8.95483 11.1333V11.1239C8.95483 8.90632 10.3192 7.11066 12.0023 7.11066C13.6854 7.11066 15.0498 8.91101 15.0498 11.1239Z" fill="url(#paint6_linear_45_1328)"/>
<path d="M17.0564 6.12609C18.3381 6.12609 19.3771 4.86665 19.3771 3.31305C19.3771 1.75944 18.3381 0.5 17.0564 0.5C15.7746 0.5 14.7356 1.75944 14.7356 3.31305C14.7356 4.86665 15.7746 6.12609 17.0564 6.12609Z" fill="url(#paint7_linear_45_1328)"/>
<path d="M17.0564 5.60098C16.6204 5.60098 16.1375 5.01961 16.1375 4.18976C16.1375 3.35992 16.6204 2.77386 17.0564 2.77386C17.4924 2.77386 17.9753 3.35523 17.9753 4.18976C17.9753 5.0243 17.4877 5.60098 17.0564 5.60098Z" fill="url(#paint8_linear_45_1328)"/>
<path d="M6.94821 6.12609C8.22993 6.12609 9.26897 4.86665 9.26897 3.31305C9.26897 1.75944 8.22993 0.5 6.94821 0.5C5.66648 0.5 4.62744 1.75944 4.62744 3.31305C4.62744 4.86665 5.66648 6.12609 6.94821 6.12609Z" fill="url(#paint9_linear_45_1328)"/>
<path d="M6.94823 5.60098C6.5122 5.60098 6.0293 5.01961 6.0293 4.18976C6.0293 3.35992 6.51689 2.77386 6.94823 2.77386C7.37956 2.77386 7.86716 3.35523 7.86716 4.18508C7.86716 5.01493 7.38425 5.60098 6.94823 5.60098Z" fill="url(#paint10_linear_45_1328)"/>
</g>
<defs>
<linearGradient id="paint0_linear_45_1328" x1="3.57721" y1="10.1487" x2="20.4275" y2="26.999" gradientUnits="userSpaceOnUse">
<stop stop-color="#F8DA30"/>
<stop offset="1" stop-color="#FDAB22"/>
</linearGradient>
<linearGradient id="paint1_linear_45_1328" x1="3.76205" y1="16.0904" x2="3.76205" y2="21.2715" gradientUnits="userSpaceOnUse">
<stop stop-color="#FEF8D7"/>
<stop offset="1" stop-color="#FFEA92"/>
</linearGradient>
<linearGradient id="paint2_linear_45_1328" x1="7.68911" y1="16.0904" x2="7.68911" y2="21.2715" gradientUnits="userSpaceOnUse">
<stop stop-color="#FEF8D7"/>
<stop offset="1" stop-color="#FFEA92"/>
</linearGradient>
<linearGradient id="paint3_linear_45_1328" x1="11.8516" y1="16.0903" x2="11.8516" y2="21.2715" gradientUnits="userSpaceOnUse">
<stop stop-color="#FEF8D7"/>
<stop offset="1" stop-color="#FFEA92"/>
</linearGradient>
<linearGradient id="paint4_linear_45_1328" x1="15.9903" y1="16.0903" x2="15.9903" y2="21.2715" gradientUnits="userSpaceOnUse">
<stop stop-color="#FEF8D7"/>
<stop offset="1" stop-color="#FFEA92"/>
</linearGradient>
<linearGradient id="paint5_linear_45_1328" x1="20.1067" y1="16.0904" x2="20.1067" y2="21.2715" gradientUnits="userSpaceOnUse">
<stop stop-color="#FEF8D7"/>
<stop offset="1" stop-color="#FFEA92"/>
</linearGradient>
<linearGradient id="paint6_linear_45_1328" x1="8.95483" y1="9.24002" x2="15.0498" y2="9.24002" gradientUnits="userSpaceOnUse">
<stop stop-color="#FFA18D"/>
<stop offset="1" stop-color="#FD3E84"/>
</linearGradient>
<linearGradient id="paint7_linear_45_1328" x1="14.7357" y1="3.31302" x2="19.3771" y2="3.31302" gradientUnits="userSpaceOnUse">
<stop stop-color="#FFD2DA"/>
<stop offset="1" stop-color="#FFECE6"/>
</linearGradient>
<linearGradient id="paint8_linear_45_1328" x1="16.1375" y1="4.18742" x2="17.9753" y2="4.18742" gradientUnits="userSpaceOnUse">
<stop stop-color="#FFA18D"/>
<stop offset="1" stop-color="#FD3E84"/>
</linearGradient>
<linearGradient id="paint9_linear_45_1328" x1="4.6275" y1="3.31302" x2="9.26891" y2="3.31302" gradientUnits="userSpaceOnUse">
<stop stop-color="#FFF4F0"/>
<stop offset="1" stop-color="#FFC2CC"/>
</linearGradient>
<linearGradient id="paint10_linear_45_1328" x1="6.0293" y1="4.18742" x2="7.86716" y2="4.18742" gradientUnits="userSpaceOnUse">
<stop stop-color="#FFA18D"/>
<stop offset="1" stop-color="#FD3E84"/>
</linearGradient>
<clipPath id="clip0_45_1328">
<rect width="24" height="24" fill="white" transform="translate(0 0.5)"/>
</clipPath>
</defs>
</svg>
