<svg width="24" height="25" viewBox="0 0 24 25" fill="none" xmlns="http://www.w3.org/2000/svg">
<path d="M8.89258 1.35809C8.96751 1.34508 9.04463 1.34981 9.11816 1.37177C9.21627 1.4011 9.30318 1.46 9.36621 1.54071C9.42917 1.62139 9.46602 1.71972 9.4707 1.82196C9.47535 1.92403 9.44775 2.02503 9.39258 2.11102L9.3916 2.112C8.33693 3.7406 7.77604 5.6395 7.77539 7.57977L7.78906 8.11786C8.08426 13.6413 12.8981 18.06 18.7852 18.0602H18.7861C20.048 18.0629 21.3016 17.8568 22.4961 17.4499C22.5931 17.4167 22.6986 17.4148 22.7969 17.444C22.895 17.4733 22.9818 17.5323 23.0449 17.613C23.1081 17.6936 23.1446 17.7919 23.1494 17.8942C23.1542 17.9967 23.1268 18.098 23.0713 18.1843V18.1852C21.9638 19.882 20.4461 21.2721 18.6592 22.2272C16.8724 23.1822 14.8735 23.6708 12.8477 23.6491C6.23855 23.6489 0.849609 18.5115 0.849609 12.1813C0.849673 7.33837 4.0568 2.99837 8.81836 1.37665L8.89258 1.35809ZM7.86328 2.82782C6.14873 3.63398 4.68219 4.89099 3.62207 6.46747C2.4846 8.15901 1.86464 10.1451 1.83789 12.1833C1.83892 17.9546 6.7702 22.6626 12.8477 22.6628H12.8496C14.547 22.6793 16.2256 22.3066 17.7568 21.5739C19.1563 20.9042 20.3977 19.9485 21.4043 18.7722C20.5434 18.9552 19.6652 19.0487 18.7842 19.0475C12.1752 19.0473 6.78633 13.9098 6.78613 7.57977C6.7861 5.93363 7.15561 4.31016 7.86328 2.82782Z" fill="#FF99DC" stroke="#FF99DC" stroke-width="0.3"/>
<path d="M14 7.50067C14.0883 7.50067 14.1729 7.53592 14.2354 7.59833C14.2978 7.66076 14.3329 7.74539 14.333 7.83368C14.333 8.1873 14.4736 8.52699 14.7236 8.77704C14.9737 9.02709 15.3134 9.16766 15.667 9.16766C15.7553 9.16775 15.8399 9.20288 15.9023 9.26532C15.9648 9.32782 16 9.41234 16 9.50067C16 9.589 15.9648 9.67353 15.9023 9.73602C15.8399 9.79846 15.7553 9.83359 15.667 9.83368C15.3134 9.83368 14.9737 9.97426 14.7236 10.2243C14.4736 10.4744 14.333 10.814 14.333 11.1677C14.3329 11.256 14.2978 11.3406 14.2354 11.403C14.1729 11.4654 14.0883 11.5007 14 11.5007C13.9117 11.5007 13.8271 11.4654 13.7646 11.403C13.7022 11.3406 13.6671 11.256 13.667 11.1677C13.667 10.814 13.5264 10.4744 13.2764 10.2243C13.0263 9.97426 12.6866 9.83368 12.333 9.83368C12.2447 9.83359 12.1601 9.79846 12.0977 9.73602C12.0352 9.67353 12 9.589 12 9.50067C12 9.41234 12.0352 9.32782 12.0977 9.26532C12.1601 9.20288 12.2447 9.16775 12.333 9.16766C12.6866 9.16766 13.0263 9.02709 13.2764 8.77704C13.5264 8.52699 13.667 8.1873 13.667 7.83368C13.6671 7.74539 13.7022 7.66076 13.7646 7.59833C13.8271 7.53592 13.9117 7.50067 14 7.50067ZM14 8.93817C13.8517 9.16109 13.6604 9.35242 13.4375 9.50067C13.6604 9.64893 13.8517 9.84025 14 10.0632C14.1483 9.84025 14.3396 9.64893 14.5625 9.50067C14.3396 9.35242 14.1483 9.16109 14 8.93817Z" fill="#FF99DC"/>
<path d="M14 7.50067C14.0883 7.50067 14.1729 7.53592 14.2354 7.59833C14.2978 7.66076 14.3329 7.74539 14.333 7.83368C14.333 8.1873 14.4736 8.52699 14.7236 8.77704C14.9737 9.02709 15.3134 9.16766 15.667 9.16766C15.7553 9.16775 15.8399 9.20288 15.9023 9.26532C15.9648 9.32782 16 9.41234 16 9.50067C16 9.589 15.9648 9.67353 15.9023 9.73602C15.8399 9.79846 15.7553 9.83359 15.667 9.83368C15.3134 9.83368 14.9737 9.97426 14.7236 10.2243C14.4736 10.4744 14.333 10.814 14.333 11.1677C14.3329 11.256 14.2978 11.3406 14.2354 11.403C14.1729 11.4654 14.0883 11.5007 14 11.5007C13.9117 11.5007 13.8271 11.4654 13.7646 11.403C13.7022 11.3406 13.6671 11.256 13.667 11.1677C13.667 10.814 13.5264 10.4744 13.2764 10.2243C13.0263 9.97426 12.6866 9.83368 12.333 9.83368C12.2447 9.83359 12.1601 9.79846 12.0977 9.73602C12.0352 9.67353 12 9.589 12 9.50067C12 9.41234 12.0352 9.32782 12.0977 9.26532C12.1601 9.20288 12.2447 9.16775 12.333 9.16766C12.6866 9.16766 13.0263 9.02709 13.2764 8.77704C13.5264 8.52699 13.667 8.1873 13.667 7.83368C13.6671 7.74539 13.7022 7.66076 13.7646 7.59833C13.8271 7.53592 13.9117 7.50067 14 7.50067ZM14 8.93817C13.8517 9.16109 13.6604 9.35242 13.4375 9.50067C13.6604 9.64893 13.8517 9.84025 14 10.0632C14.1483 9.84025 14.3396 9.64893 14.5625 9.50067C14.3396 9.35242 14.1483 9.16109 14 8.93817Z" stroke="#FF99DC"/>
<path d="M19 5.50067C19.0883 5.50067 19.1729 5.53592 19.2354 5.59833C19.2978 5.66076 19.3329 5.74539 19.333 5.83368C19.333 6.1873 19.4736 6.52699 19.7236 6.77704C19.9737 7.02709 20.3134 7.16766 20.667 7.16766C20.7553 7.16775 20.8399 7.20288 20.9023 7.26532C20.9648 7.32782 21 7.41234 21 7.50067C21 7.589 20.9648 7.67353 20.9023 7.73602C20.8399 7.79846 20.7553 7.83359 20.667 7.83368C20.3134 7.83368 19.9737 7.97426 19.7236 8.2243C19.4736 8.47435 19.333 8.81404 19.333 9.16766C19.3329 9.25595 19.2978 9.34058 19.2354 9.40302C19.1729 9.46543 19.0883 9.50067 19 9.50067C18.9117 9.50067 18.8271 9.46543 18.7646 9.40302C18.7022 9.34058 18.6671 9.25595 18.667 9.16766C18.667 8.81404 18.5264 8.47435 18.2764 8.2243C18.0263 7.97426 17.6866 7.83368 17.333 7.83368C17.2447 7.83359 17.1601 7.79846 17.0977 7.73602C17.0352 7.67353 17 7.589 17 7.50067C17 7.41234 17.0352 7.32782 17.0977 7.26532C17.1601 7.20288 17.2447 7.16775 17.333 7.16766C17.6866 7.16766 18.0263 7.02709 18.2764 6.77704C18.5264 6.52699 18.667 6.1873 18.667 5.83368C18.6671 5.74539 18.7022 5.66076 18.7646 5.59833C18.8271 5.53592 18.9117 5.50067 19 5.50067ZM19 6.93817C18.8517 7.16109 18.6604 7.35242 18.4375 7.50067C18.6604 7.64893 18.8517 7.84025 19 8.06317C19.1483 7.84025 19.3396 7.64893 19.5625 7.50067C19.3396 7.35242 19.1483 7.16109 19 6.93817Z" fill="#FF99DC"/>
<path d="M19 5.50067C19.0883 5.50067 19.1729 5.53592 19.2354 5.59833C19.2978 5.66076 19.3329 5.74539 19.333 5.83368C19.333 6.1873 19.4736 6.52699 19.7236 6.77704C19.9737 7.02709 20.3134 7.16766 20.667 7.16766C20.7553 7.16775 20.8399 7.20288 20.9023 7.26532C20.9648 7.32782 21 7.41234 21 7.50067C21 7.589 20.9648 7.67353 20.9023 7.73602C20.8399 7.79846 20.7553 7.83359 20.667 7.83368C20.3134 7.83368 19.9737 7.97426 19.7236 8.2243C19.4736 8.47435 19.333 8.81404 19.333 9.16766C19.3329 9.25595 19.2978 9.34058 19.2354 9.40302C19.1729 9.46543 19.0883 9.50067 19 9.50067C18.9117 9.50067 18.8271 9.46543 18.7646 9.40302C18.7022 9.34058 18.6671 9.25595 18.667 9.16766C18.667 8.81404 18.5264 8.47435 18.2764 8.2243C18.0263 7.97426 17.6866 7.83368 17.333 7.83368C17.2447 7.83359 17.1601 7.79846 17.0977 7.73602C17.0352 7.67353 17 7.589 17 7.50067C17 7.41234 17.0352 7.32782 17.0977 7.26532C17.1601 7.20288 17.2447 7.16775 17.333 7.16766C17.6866 7.16766 18.0263 7.02709 18.2764 6.77704C18.5264 6.52699 18.667 6.1873 18.667 5.83368C18.6671 5.74539 18.7022 5.66076 18.7646 5.59833C18.8271 5.53592 18.9117 5.50067 19 5.50067ZM19 6.93817C18.8517 7.16109 18.6604 7.35242 18.4375 7.50067C18.6604 7.64893 18.8517 7.84025 19 8.06317C19.1483 7.84025 19.3396 7.64893 19.5625 7.50067C19.3396 7.35242 19.1483 7.16109 19 6.93817Z" stroke="#FF99DC"/>
<path d="M17 12.5007C17.0883 12.5007 17.1729 12.5359 17.2354 12.5983C17.2978 12.6608 17.3329 12.7454 17.333 12.8337C17.333 13.1873 17.4736 13.527 17.7236 13.777C17.9737 14.0271 18.3134 14.1677 18.667 14.1677C18.7553 14.1677 18.8399 14.2029 18.9023 14.2653C18.9648 14.3278 19 14.4123 19 14.5007C19 14.589 18.9648 14.6735 18.9023 14.736C18.8399 14.7985 18.7553 14.8336 18.667 14.8337C18.3134 14.8337 17.9737 14.9743 17.7236 15.2243C17.4736 15.4744 17.333 15.814 17.333 16.1677C17.3329 16.256 17.2978 16.3406 17.2354 16.403C17.1729 16.4654 17.0883 16.5007 17 16.5007C16.9117 16.5007 16.8271 16.4654 16.7646 16.403C16.7022 16.3406 16.6671 16.256 16.667 16.1677C16.667 15.814 16.5264 15.4744 16.2764 15.2243C16.0263 14.9743 15.6866 14.8337 15.333 14.8337C15.2447 14.8336 15.1601 14.7985 15.0977 14.736C15.0352 14.6735 15 14.589 15 14.5007C15 14.4123 15.0352 14.3278 15.0977 14.2653C15.1601 14.2029 15.2447 14.1677 15.333 14.1677C15.6866 14.1677 16.0263 14.0271 16.2764 13.777C16.5264 13.527 16.667 13.1873 16.667 12.8337C16.6671 12.7454 16.7022 12.6608 16.7646 12.5983C16.8271 12.5359 16.9117 12.5007 17 12.5007ZM17 13.9382C16.8517 14.1611 16.6604 14.3524 16.4375 14.5007C16.6604 14.6489 16.8517 14.8403 17 15.0632C17.1483 14.8403 17.3396 14.6489 17.5625 14.5007C17.3396 14.3524 17.1483 14.1611 17 13.9382Z" fill="#FF99DC"/>
<path d="M17 12.5007C17.0883 12.5007 17.1729 12.5359 17.2354 12.5983C17.2978 12.6608 17.3329 12.7454 17.333 12.8337C17.333 13.1873 17.4736 13.527 17.7236 13.777C17.9737 14.0271 18.3134 14.1677 18.667 14.1677C18.7553 14.1677 18.8399 14.2029 18.9023 14.2653C18.9648 14.3278 19 14.4123 19 14.5007C19 14.589 18.9648 14.6735 18.9023 14.736C18.8399 14.7985 18.7553 14.8336 18.667 14.8337C18.3134 14.8337 17.9737 14.9743 17.7236 15.2243C17.4736 15.4744 17.333 15.814 17.333 16.1677C17.3329 16.256 17.2978 16.3406 17.2354 16.403C17.1729 16.4654 17.0883 16.5007 17 16.5007C16.9117 16.5007 16.8271 16.4654 16.7646 16.403C16.7022 16.3406 16.6671 16.256 16.667 16.1677C16.667 15.814 16.5264 15.4744 16.2764 15.2243C16.0263 14.9743 15.6866 14.8337 15.333 14.8337C15.2447 14.8336 15.1601 14.7985 15.0977 14.736C15.0352 14.6735 15 14.589 15 14.5007C15 14.4123 15.0352 14.3278 15.0977 14.2653C15.1601 14.2029 15.2447 14.1677 15.333 14.1677C15.6866 14.1677 16.0263 14.0271 16.2764 13.777C16.5264 13.527 16.667 13.1873 16.667 12.8337C16.6671 12.7454 16.7022 12.6608 16.7646 12.5983C16.8271 12.5359 16.9117 12.5007 17 12.5007ZM17 13.9382C16.8517 14.1611 16.6604 14.3524 16.4375 14.5007C16.6604 14.6489 16.8517 14.8403 17 15.0632C17.1483 14.8403 17.3396 14.6489 17.5625 14.5007C17.3396 14.3524 17.1483 14.1611 17 13.9382Z" stroke="#FF99DC"/>
</svg>
