<svg width="20" height="20" viewBox="0 0 20 20" fill="none" xmlns="http://www.w3.org/2000/svg">
<path d="M17.7518 2.28022C15.7647 0.174221 12.1138 1.50844 11.8918 4.37143C11.6405 6.43744 13.5638 8.35906 15.6266 8.10665C18.4623 7.89294 19.8196 4.26375 17.7518 2.28022ZM15.6266 6.24685H15.0015C14.9194 6.24563 14.8411 6.21216 14.7835 6.15367C14.7258 6.09519 14.6935 6.01638 14.6935 5.93427C14.6935 5.85216 14.7258 5.77335 14.7835 5.71486C14.8411 5.65638 14.9194 5.62291 15.0015 5.62169V3.74622C14.9194 3.74494 14.8412 3.71145 14.7836 3.65297C14.726 3.59449 14.6937 3.51571 14.6937 3.43364C14.6937 3.35156 14.726 3.27278 14.7836 3.2143C14.8412 3.15582 14.9194 3.12233 15.0015 3.12106H15.314C15.3968 3.12131 15.4762 3.15432 15.5348 3.21289C15.5933 3.27146 15.6263 3.35082 15.6266 3.43364V5.62169C15.7086 5.62296 15.7869 5.65645 15.8445 5.71493C15.9021 5.77342 15.9343 5.8522 15.9343 5.93427C15.9343 6.01634 15.9021 6.09512 15.8445 6.1536C15.7869 6.21208 15.7086 6.24557 15.6266 6.24685ZM11.723 12.3109C11.076 13.5936 9.88333 14.6118 8.71645 14.8303C6.48806 15.0497 4.20025 11.8649 4.77227 9.77902C4.85413 9.41267 5.04068 9.078 5.30923 8.81571C5.57778 8.55343 5.91676 8.37483 6.28495 8.30164C6.65313 8.22845 7.03464 8.26383 7.38309 8.40346C7.73154 8.5431 8.0319 8.78098 8.24765 9.08817C8.31282 9.13889 8.3954 9.16177 8.47738 9.15182C8.55935 9.14187 8.63406 9.09989 8.68519 9.03505C8.90522 8.73818 9.20635 8.51121 9.55233 8.38144C9.89832 8.25168 10.2744 8.22465 10.6354 8.30361C12.4079 8.67845 12.4858 10.9754 11.723 12.3109ZM14.9452 8.73185C13.8839 8.62977 12.9047 8.1163 12.2173 7.30134C11.5298 6.48638 11.1886 5.43469 11.2668 4.37135L2.81269 4.37137C2.39825 4.37155 2.00085 4.53627 1.70782 4.82934C1.41479 5.12241 1.25012 5.51984 1.25 5.93427V17.1871C1.25012 17.6015 1.41479 17.999 1.70782 18.292C2.00084 18.5851 2.39824 18.7498 2.81267 18.75H14.0639C14.4783 18.7498 14.8757 18.5851 15.1688 18.292C15.4618 17.999 15.6264 17.6015 15.6266 17.1871V8.73185C15.4 8.75366 15.1718 8.75366 14.9452 8.73185ZM12.7638 11.1137C12.4106 13.3402 10.2442 15.7104 8.04139 15.443C5.75338 15.081 3.5196 11.9251 4.16601 9.63204C4.26673 9.18965 4.48355 8.7821 4.79414 8.45135C5.10473 8.12061 5.49786 7.87862 5.93305 7.75032C6.36824 7.62201 6.82977 7.61201 7.27011 7.72136C7.71045 7.83071 8.11369 8.05545 8.4383 8.37244C8.73978 8.0743 9.11091 7.85611 9.51804 7.73765C9.92517 7.6192 10.3554 7.60423 10.7698 7.6941C12.2957 7.9974 13.0419 9.6374 12.7638 11.1137Z" fill="url(#paint0_linear_45_1344)"/>
<defs>
<linearGradient id="paint0_linear_45_1344" x1="1.25" y1="10" x2="18.75" y2="10" gradientUnits="userSpaceOnUse">
<stop stop-color="#FFA68D"/>
<stop offset="1" stop-color="#FD3A84"/>
</linearGradient>
</defs>
</svg>
