<svg width="24" height="25" viewBox="0 0 24 25" fill="none" xmlns="http://www.w3.org/2000/svg">
<path d="M22.3923 12.1484C22.1982 11.8121 21.7681 11.6968 21.4319 11.891L19.4752 13.0208C19.1389 13.215 19.0237 13.645 19.2179 13.9813C19.3481 14.2068 19.5844 14.333 19.8274 14.333C19.9467 14.333 20.0676 14.3026 20.1783 14.2386L22.135 13.1089C22.4713 12.9147 22.5865 12.4847 22.3923 12.1484Z" fill="#FF99DC"/>
<path d="M18.0001 7.75618C17.6637 7.56189 17.2337 7.67724 17.0396 8.01353L15.91 9.97023C15.7158 10.3066 15.8311 10.7366 16.1673 10.9307C16.2781 10.9946 16.3989 11.0251 16.5182 11.0251C16.7612 11.0251 16.9976 10.8989 17.1278 10.6734L18.2575 8.71665C18.4516 8.38032 18.3364 7.95029 18.0001 7.75618Z" fill="#FF99DC"/>
<path d="M12 6.1485C11.6117 6.1485 11.2969 6.46331 11.2969 6.85162V9.111C11.2969 9.49931 11.6117 9.81412 12 9.81412C12.3883 9.81412 12.7031 9.49931 12.7031 9.111V6.85162C12.7031 6.46331 12.3883 6.1485 12 6.1485Z" fill="#FF99DC"/>
<path d="M8.09001 9.97019L6.96032 8.01354C6.76617 7.67721 6.33613 7.5619 5.99985 7.75619C5.66357 7.95035 5.54835 8.38038 5.74251 8.71666L6.8722 10.6733C7.00242 10.8989 7.23876 11.025 7.48176 11.025C7.60101 11.025 7.72195 10.9946 7.83267 10.9307C8.16895 10.7365 8.28417 10.3065 8.09001 9.97019Z" fill="#FF99DC"/>
<path d="M4.5249 13.0209L2.56824 11.8912C2.23187 11.6969 1.80188 11.8122 1.60777 12.1485C1.41357 12.4848 1.52879 12.9148 1.86512 13.109L3.82177 14.2387C3.93249 14.3027 4.05338 14.3331 4.17268 14.3331C4.41568 14.3331 4.65202 14.207 4.78224 13.9814C4.9764 13.6451 4.86118 13.2151 4.5249 13.0209Z" fill="#FF99DC"/>
<path d="M23.2969 17.4453H17.1743C16.8299 14.8973 14.6409 12.9266 12 12.9266C9.35906 12.9266 7.17009 14.8973 6.82561 17.4453H0.703125C0.314812 17.4453 0 17.7601 0 18.1484C0 18.5367 0.314812 18.8515 0.703125 18.8515H23.2969C23.6852 18.8515 24 18.5367 24 18.1484C24 17.7601 23.6852 17.4453 23.2969 17.4453ZM8.25037 17.4453C8.58145 15.6762 10.1363 14.3328 12 14.3328C13.8637 14.3328 15.4185 15.6762 15.7496 17.4453H8.25037Z" fill="#FF99DC"/>
</svg>
