<svg width="24" height="25" viewBox="0 0 24 25" fill="none" xmlns="http://www.w3.org/2000/svg">
<path d="M3.51172 12.6219C4.2673 12.622 4.89181 13.1588 5.04199 13.869H7.00781C7.65947 13.869 8.31629 14.0145 8.90723 14.2899L11.6084 15.5507H15.1348C15.1407 15.5494 15.1492 15.5477 15.1592 15.5477L15.1865 15.5507H15.1895C15.1921 15.5507 15.1949 15.5515 15.1973 15.5516H15.1982C15.9685 15.572 16.6427 16.1835 16.6592 17.0155L21.583 14.8368H21.584C22.4266 14.4847 23.3501 14.8954 23.6826 15.6932C24.0218 16.5069 23.6359 17.4455 22.8223 17.785L14.124 22.3368C13.3343 22.7453 12.4255 22.8247 11.6045 22.5966L11.4414 22.5468L7.14062 21.1132C6.23743 20.812 5.60418 20.9002 5.04199 20.8876C4.89153 21.5974 4.26699 22.1345 3.51172 22.1346H0.660156C0.403126 22.1346 0.194564 21.9261 0.194336 21.6688V13.0878C0.194336 12.8303 0.402922 12.6219 0.660156 12.6219H3.51172ZM5.08301 19.9559C5.59098 19.9638 6.38285 19.8781 7.43555 20.2294L11.7363 21.663L11.9805 21.7303C12.5558 21.8585 13.168 21.7822 13.6943 21.5096L22.4277 16.9423L22.4346 16.9384C22.8056 16.7821 22.9637 16.3887 22.8232 16.0516C22.6815 15.7121 22.2901 15.5519 21.9502 15.6932L15.8691 18.3846H15.8682C15.6682 18.4728 15.4288 18.5643 15.1895 18.5643H10.7842C10.5271 18.5642 10.3184 18.3559 10.3184 18.0985C10.3185 17.8413 10.5272 17.6329 10.7842 17.6327H15.1592C15.4769 17.6326 15.7353 17.3741 15.7354 17.0565C15.7354 16.7851 15.5462 16.557 15.292 16.4969L15.1797 16.4823H11.5059C11.4898 16.4823 11.4667 16.4825 11.4424 16.4794C11.4168 16.476 11.3914 16.469 11.3604 16.4579C11.3008 16.4365 11.207 16.394 11.0332 16.3124C10.6816 16.1473 9.98231 15.8135 8.51367 15.1346C8.04533 14.9161 7.52426 14.8007 7.00781 14.8007H5.08301V19.9559ZM1.12598 21.203H3.51172C3.86451 21.2029 4.15135 20.9154 4.15137 20.5624V14.1932C4.15129 13.8403 3.86447 13.5537 3.51172 13.5536H1.12598V21.203Z" fill="#FF99DC" stroke="#FF99DC" stroke-width="0.2"/>
<path d="M16.7947 2.2782C18.9516 2.27826 20.7066 4.03259 20.7068 6.18933C20.7068 7.0892 20.3108 8.03428 19.7253 8.94128C19.1389 9.8498 18.3555 10.7303 17.5671 11.5048C15.9913 13.0527 14.3833 14.186 14.2488 14.2802L14.2478 14.2811C14.168 14.3361 14.0745 14.3641 13.9812 14.3641C13.8883 14.3641 13.7947 14.3361 13.7146 14.2802C13.5788 14.1854 11.97 13.0522 10.3933 11.5048C9.60436 10.7304 8.82106 9.84969 8.23413 8.94128C7.64813 8.03425 7.25171 7.08922 7.25171 6.18933C7.25187 4.03255 9.00668 2.2782 11.1638 2.2782C12.2333 2.27829 13.2489 2.71871 13.9802 3.47839C14.7082 2.71848 15.723 2.2782 16.7947 2.2782ZM16.7947 3.20984C15.8248 3.20984 14.9163 3.68325 14.364 4.47546C14.277 4.60058 14.134 4.67421 13.9822 4.67468H13.9812C13.8298 4.67454 13.6876 4.6014 13.6003 4.47742C13.0427 3.68388 12.1317 3.20995 11.1638 3.20984C9.52062 3.20984 8.18352 4.54634 8.18335 6.18933C8.18335 6.85673 8.47346 7.58963 8.93823 8.33191C9.40206 9.07263 10.0335 9.81352 10.7009 10.495C11.9886 11.8098 13.4027 12.894 13.9812 13.3212C14.5592 12.8939 15.9718 11.8092 17.2585 10.494C17.9255 9.81237 18.5568 9.0716 19.0203 8.33093C19.4846 7.58878 19.7751 6.85619 19.7751 6.18933C19.775 4.54641 18.4378 3.2099 16.7947 3.20984Z" fill="#FF99DC" stroke="#FF99DC" stroke-width="0.2"/>
</svg>
