<svg width="20" height="21" viewBox="0 0 20 21" fill="none" xmlns="http://www.w3.org/2000/svg">
<g clip-path="url(#clip0_44_1238)">
<path d="M10 15.5C12.7614 15.5 15 13.2614 15 10.5C15 7.73858 12.7614 5.5 10 5.5C7.23858 5.5 5 7.73858 5 10.5C5 13.2614 7.23858 15.5 10 15.5Z" fill="url(#paint0_linear_44_1238)"/>
<path d="M13.4657 6.90002L5.06878 11.3188C5.02211 11.0484 4.9991 10.7744 5.00003 10.5C4.99939 9.51916 5.28744 8.5598 5.82827 7.74152C6.36911 6.92324 7.13881 6.28223 8.04145 5.89839C8.94408 5.51455 9.93973 5.40484 10.9043 5.58296C11.8688 5.76107 12.7596 6.21912 13.4657 6.90002Z" fill="url(#paint1_linear_44_1238)"/>
<path d="M10 4.45097C9.91712 4.45097 9.83763 4.41804 9.77903 4.35944C9.72042 4.30083 9.6875 4.22135 9.6875 4.13847V1.125C9.6875 1.04212 9.72042 0.962634 9.77903 0.904029C9.83763 0.845424 9.91712 0.8125 10 0.8125C10.0829 0.8125 10.1624 0.845424 10.221 0.904029C10.2796 0.962634 10.3125 1.04212 10.3125 1.125V4.13847C10.3125 4.22135 10.2796 4.30083 10.221 4.35944C10.1624 4.41804 10.0829 4.45097 10 4.45097Z" fill="url(#paint2_linear_44_1238)"/>
<path d="M6.81951 5.30315C6.76459 5.30321 6.71062 5.2888 6.66305 5.26137C6.61547 5.23394 6.57596 5.19446 6.54851 5.1469L5.68029 3.64299C5.65977 3.60744 5.64645 3.5682 5.6411 3.52751C5.63574 3.48682 5.63846 3.44547 5.64908 3.40582C5.65971 3.36618 5.67804 3.32901 5.70303 3.29645C5.72802 3.26389 5.75918 3.23657 5.79472 3.21605C5.83027 3.19554 5.86951 3.18222 5.91021 3.17686C5.9509 3.17151 5.99225 3.17422 6.03189 3.18485C6.07154 3.19548 6.1087 3.21381 6.14126 3.2388C6.17382 3.26379 6.20114 3.29494 6.22166 3.33049L7.08988 4.8344C7.1173 4.88188 7.13174 4.93575 7.13175 4.99058C7.13176 5.04542 7.11734 5.09929 7.08995 5.14679C7.06255 5.19428 7.02314 5.23374 6.97567 5.26118C6.9282 5.28863 6.87434 5.3031 6.81951 5.30315Z" fill="url(#paint3_linear_44_1238)"/>
<path d="M4.49031 7.63164C4.43556 7.63164 4.38178 7.61722 4.33438 7.58983L1.72466 6.08317C1.68911 6.06265 1.65795 6.03534 1.63296 6.00277C1.60797 5.97021 1.58964 5.93305 1.57902 5.89341C1.56839 5.85376 1.56568 5.81241 1.57103 5.77172C1.57638 5.73102 1.5897 5.69178 1.61022 5.65624C1.63074 5.62069 1.65806 5.58953 1.69062 5.56454C1.72318 5.53955 1.76034 5.52122 1.79999 5.5106C1.83963 5.49997 1.88098 5.49726 1.92168 5.50261C1.96237 5.50796 2.00161 5.52128 2.03716 5.5418L4.64684 7.04845C4.70647 7.08285 4.75307 7.13597 4.77941 7.19957C4.80575 7.26317 4.81035 7.33369 4.7925 7.40017C4.77465 7.46665 4.73536 7.52538 4.68071 7.56723C4.62606 7.60909 4.55915 7.63173 4.49031 7.63164Z" fill="url(#paint4_linear_44_1238)"/>
<path d="M3.63848 10.8125H1.90186C1.81898 10.8125 1.73949 10.7796 1.68088 10.721C1.62228 10.6624 1.58936 10.5829 1.58936 10.5C1.58936 10.4171 1.62228 10.3376 1.68088 10.279C1.73949 10.2204 1.81898 10.1875 1.90186 10.1875H3.63848C3.72136 10.1875 3.80085 10.2204 3.85945 10.279C3.91806 10.3376 3.95098 10.4171 3.95098 10.5C3.95098 10.5829 3.91806 10.6624 3.85945 10.721C3.80085 10.7796 3.72136 10.8125 3.63848 10.8125Z" fill="url(#paint5_linear_44_1238)"/>
<path d="M1.88127 15.5C1.81243 15.5001 1.74549 15.4774 1.69084 15.4356C1.63619 15.3937 1.59689 15.335 1.57905 15.2685C1.5612 15.202 1.5658 15.1315 1.59214 15.0679C1.61848 15.0043 1.66508 14.9512 1.7247 14.9168L4.33439 13.4101C4.36994 13.3896 4.40918 13.3763 4.44987 13.371C4.49057 13.3656 4.53192 13.3683 4.57156 13.3789C4.61121 13.3896 4.64837 13.4079 4.68093 13.4329C4.71349 13.4579 4.74081 13.489 4.76133 13.5246C4.78185 13.5601 4.79517 13.5994 4.80052 13.6401C4.80587 13.6808 4.80316 13.7221 4.79253 13.7618C4.78191 13.8014 4.76357 13.8386 4.73859 13.8711C4.7136 13.9037 4.68244 13.931 4.64689 13.9515L2.0372 15.4582C1.9898 15.4856 1.93602 15.5 1.88127 15.5Z" fill="url(#paint6_linear_44_1238)"/>
<path d="M5.95067 17.8258C5.89584 17.8257 5.84198 17.8112 5.79451 17.7838C5.74704 17.7564 5.70763 17.7169 5.68023 17.6694C5.65283 17.6219 5.63842 17.568 5.63843 17.5132C5.63844 17.4584 5.65288 17.4045 5.68029 17.357L6.54851 15.8531C6.58995 15.7813 6.65821 15.729 6.73828 15.7075C6.81835 15.686 6.90366 15.6973 6.97545 15.7387C7.04724 15.7801 7.09963 15.8484 7.12109 15.9285C7.14255 16.0085 7.13133 16.0938 7.08989 16.1656L6.22167 17.6695C6.19421 17.7171 6.1547 17.7566 6.10712 17.784C6.05955 17.8114 6.00558 17.8258 5.95067 17.8258Z" fill="url(#paint7_linear_44_1238)"/>
<path d="M10 20.1875C9.91712 20.1875 9.83763 20.1546 9.77903 20.096C9.72042 20.0373 9.6875 19.9579 9.6875 19.875V16.8615C9.6875 16.7786 9.72042 16.6991 9.77903 16.6405C9.83763 16.5819 9.91712 16.549 10 16.549C10.0829 16.549 10.1624 16.5819 10.221 16.6405C10.2796 16.6991 10.3125 16.7786 10.3125 16.8615V19.875C10.3125 19.9579 10.2796 20.0373 10.221 20.096C10.1624 20.1546 10.0829 20.1875 10 20.1875Z" fill="url(#paint8_linear_44_1238)"/>
<path d="M14.0495 17.8258C13.9946 17.8258 13.9406 17.8114 13.893 17.784C13.8455 17.7566 13.8059 17.7171 13.7785 17.6695L12.9103 16.1656C12.8897 16.1301 12.8764 16.0908 12.8711 16.0502C12.8657 16.0095 12.8684 15.9681 12.8791 15.9285C12.8897 15.8888 12.908 15.8517 12.933 15.8191C12.958 15.7865 12.9892 15.7592 13.0247 15.7387C13.0603 15.7182 13.0995 15.7049 13.1402 15.6995C13.1809 15.6942 13.2222 15.6969 13.2619 15.7075C13.3015 15.7181 13.3387 15.7365 13.3712 15.7614C13.4038 15.7864 13.4311 15.8176 13.4516 15.8531L14.3199 17.357C14.3473 17.4045 14.3617 17.4584 14.3617 17.5132C14.3617 17.5681 14.3473 17.6219 14.3199 17.6694C14.2925 17.7169 14.2531 17.7564 14.2056 17.7838C14.1582 17.8113 14.1043 17.8257 14.0495 17.8258Z" fill="url(#paint9_linear_44_1238)"/>
<path d="M18.1187 15.5C18.0639 15.5 18.0102 15.4856 17.9628 15.4582L15.3531 13.9515C15.2813 13.9101 15.2289 13.8418 15.2074 13.7618C15.186 13.6817 15.1972 13.5964 15.2386 13.5246C15.2801 13.4528 15.3483 13.4004 15.4284 13.3789C15.5085 13.3575 15.5938 13.3687 15.6656 13.4101L18.2753 14.9168C18.3349 14.9512 18.3815 15.0043 18.4079 15.0679C18.4342 15.1315 18.4388 15.202 18.4209 15.2685C18.4031 15.335 18.3638 15.3937 18.3091 15.4356C18.2545 15.4775 18.1875 15.5001 18.1187 15.5Z" fill="url(#paint10_linear_44_1238)"/>
<path d="M18.0982 10.8125H16.3616C16.2787 10.8125 16.1992 10.7796 16.1406 10.721C16.082 10.6624 16.0491 10.5829 16.0491 10.5C16.0491 10.4171 16.082 10.3376 16.1406 10.279C16.1992 10.2204 16.2787 10.1875 16.3616 10.1875H18.0982C18.1811 10.1875 18.2606 10.2204 18.3192 10.279C18.3778 10.3376 18.4107 10.4171 18.4107 10.5C18.4107 10.5829 18.3778 10.6624 18.3192 10.721C18.2606 10.7796 18.1811 10.8125 18.0982 10.8125Z" fill="url(#paint11_linear_44_1238)"/>
<path d="M15.5097 7.63164C15.4408 7.63173 15.3739 7.60909 15.3193 7.56723C15.2646 7.52538 15.2253 7.46665 15.2075 7.40017C15.1896 7.33369 15.1942 7.26317 15.2206 7.19957C15.2469 7.13597 15.2935 7.08285 15.3531 7.04845L17.9628 5.5418C17.9984 5.52128 18.0376 5.50796 18.0783 5.50261C18.119 5.49726 18.1604 5.49997 18.2 5.5106C18.2397 5.52122 18.2768 5.53955 18.3094 5.56454C18.3419 5.58953 18.3693 5.62069 18.3898 5.65624C18.4103 5.69178 18.4236 5.73102 18.429 5.77172C18.4343 5.81241 18.4316 5.85376 18.421 5.89341C18.4104 5.93305 18.392 5.97021 18.367 6.00277C18.342 6.03534 18.3109 6.06265 18.2753 6.08317L15.6657 7.58983C15.6182 7.61723 15.5644 7.63165 15.5097 7.63164Z" fill="url(#paint12_linear_44_1238)"/>
<path d="M13.1807 5.30315C13.1258 5.3031 13.072 5.28863 13.0245 5.26118C12.977 5.23374 12.9376 5.19428 12.9102 5.14679C12.8828 5.09929 12.8684 5.04542 12.8684 4.99058C12.8684 4.93575 12.8829 4.88188 12.9103 4.8344L13.7785 3.33049C13.799 3.29494 13.8263 3.26379 13.8589 3.2388C13.8915 3.21381 13.9286 3.19548 13.9683 3.18485C14.0079 3.17422 14.0493 3.17151 14.09 3.17686C14.1306 3.18222 14.1699 3.19554 14.2054 3.21605C14.241 3.23657 14.2721 3.26389 14.2971 3.29645C14.3221 3.32901 14.3404 3.36618 14.3511 3.40582C14.3617 3.44547 14.3644 3.48682 14.3591 3.52751C14.3537 3.5682 14.3404 3.60744 14.3199 3.64299L13.4517 5.1469C13.4242 5.19446 13.3847 5.23394 13.3371 5.26137C13.2895 5.2888 13.2356 5.30321 13.1807 5.30315Z" fill="url(#paint13_linear_44_1238)"/>
<path d="M5.16455 11.75C5.44026 12.823 6.06501 13.7737 6.94042 14.4526C7.81583 15.1315 8.89218 15.5 9.99999 15.5C11.1078 15.5 12.1841 15.1315 13.0596 14.4526C13.935 13.7737 14.5597 12.823 14.8354 11.75H5.16455Z" fill="url(#paint14_linear_44_1238)"/>
<path d="M9.6875 3V4.13847C9.6875 4.22135 9.72042 4.30083 9.77903 4.35944C9.83763 4.41804 9.91712 4.45097 10 4.45097C10.0829 4.45097 10.1624 4.41804 10.221 4.35944C10.2796 4.30083 10.3125 4.22135 10.3125 4.13847V3H9.6875Z" fill="url(#paint15_linear_44_1238)"/>
<path d="M5.97949 4.16107L6.54871 5.14701C6.56923 5.18255 6.59655 5.2137 6.62911 5.23869C6.66166 5.26367 6.69882 5.28199 6.73846 5.29262C6.77811 5.30324 6.81945 5.30595 6.86014 5.30059C6.90083 5.29524 6.94006 5.28192 6.9756 5.2614C7.01114 5.24088 7.04229 5.21356 7.06728 5.181C7.09226 5.14845 7.11059 5.11129 7.12121 5.07165C7.13183 5.03201 7.13454 4.99066 7.12918 4.94997C7.12383 4.90928 7.11051 4.87005 7.08999 4.83451L6.52074 3.84857L5.97949 4.16107Z" fill="url(#paint16_linear_44_1238)"/>
<path d="M3.34863 7.02062L4.33457 7.58987C4.37011 7.61039 4.40935 7.62371 4.45003 7.62906C4.49072 7.63442 4.53207 7.63171 4.57171 7.62109C4.61135 7.61046 4.64851 7.59214 4.68107 7.56715C4.71362 7.54217 4.74094 7.51102 4.76146 7.47548C4.78198 7.43994 4.7953 7.4007 4.80065 7.36002C4.80601 7.31933 4.8033 7.27798 4.79268 7.23834C4.78206 7.1987 4.76373 7.16154 4.73875 7.12898C4.71376 7.09643 4.68261 7.06911 4.64707 7.04859L3.66113 6.47937L3.34863 7.02062Z" fill="url(#paint17_linear_44_1238)"/>
<path d="M2.5 10.8125H3.63847C3.72135 10.8125 3.80083 10.7796 3.85944 10.721C3.91804 10.6624 3.95097 10.5829 3.95097 10.5C3.95097 10.4171 3.91804 10.3376 3.85944 10.279C3.80083 10.2204 3.72135 10.1875 3.63847 10.1875H2.5V10.8125Z" fill="url(#paint18_linear_44_1238)"/>
<path d="M3.66113 14.5207L4.64707 13.9514C4.71885 13.91 4.77123 13.8417 4.79268 13.7617C4.81413 13.6816 4.8029 13.5963 4.76146 13.5245C4.72002 13.4528 4.65176 13.4004 4.57171 13.3789C4.49165 13.3575 4.40635 13.3687 4.33457 13.4102L3.34863 13.9794L3.66113 14.5207Z" fill="url(#paint19_linear_44_1238)"/>
<path d="M6.52074 17.1514L7.08999 16.1655C7.11051 16.1299 7.12383 16.0907 7.12918 16.05C7.13454 16.0093 7.13183 15.968 7.12121 15.9283C7.11059 15.8887 7.09226 15.8515 7.06728 15.819C7.04229 15.7864 7.01114 15.7591 6.9756 15.7386C6.94006 15.7181 6.90083 15.7047 6.86014 15.6994C6.81945 15.694 6.77811 15.6967 6.73846 15.7074C6.69882 15.718 6.66166 15.7363 6.62911 15.7613C6.59655 15.7863 6.56923 15.8174 6.54871 15.853L5.97949 16.8389L6.52074 17.1514Z" fill="url(#paint20_linear_44_1238)"/>
<path d="M10.3125 18V16.8615C10.3125 16.7786 10.2796 16.6991 10.221 16.6405C10.1624 16.5819 10.0829 16.549 10 16.549C9.91712 16.549 9.83763 16.5819 9.77903 16.6405C9.72042 16.6991 9.6875 16.7786 9.6875 16.8615V18H10.3125Z" fill="url(#paint21_linear_44_1238)"/>
<path d="M14.0205 16.8389L13.4513 15.8531C13.4099 15.7813 13.3416 15.7289 13.2616 15.7075C13.1815 15.686 13.0962 15.6973 13.0244 15.7387C12.9526 15.7801 12.9003 15.8484 12.8788 15.9285C12.8574 16.0085 12.8686 16.0938 12.91 16.1656L13.4793 17.1515L14.0205 16.8389Z" fill="url(#paint22_linear_44_1238)"/>
<path d="M16.6513 13.9794L15.6655 13.4102C15.5938 13.3687 15.5085 13.3575 15.4284 13.3789C15.3483 13.4004 15.2801 13.4528 15.2386 13.5245C15.1972 13.5963 15.186 13.6816 15.2074 13.7617C15.2289 13.8417 15.2813 13.91 15.353 13.9514L16.339 14.5207L16.6513 13.9794Z" fill="url(#paint23_linear_44_1238)"/>
<path d="M17.5 10.1875H16.3616C16.2787 10.1875 16.1992 10.2204 16.1406 10.279C16.082 10.3376 16.0491 10.4171 16.0491 10.5C16.0491 10.5829 16.082 10.6624 16.1406 10.721C16.1992 10.7796 16.2787 10.8125 16.3616 10.8125H17.5V10.1875Z" fill="url(#paint24_linear_44_1238)"/>
<path d="M16.3388 6.47937L15.353 7.04859C15.3175 7.06911 15.2863 7.09643 15.2614 7.12898C15.2364 7.16154 15.218 7.1987 15.2074 7.23834C15.1968 7.27798 15.1941 7.31933 15.1995 7.36002C15.2048 7.4007 15.2181 7.43994 15.2386 7.47548C15.2592 7.51102 15.2865 7.54217 15.319 7.56715C15.3516 7.59214 15.3888 7.61046 15.4284 7.62109C15.468 7.63171 15.5094 7.63442 15.5501 7.62906C15.5908 7.62371 15.63 7.61039 15.6655 7.58987L16.6515 7.02062L16.3388 6.47937Z" fill="url(#paint25_linear_44_1238)"/>
<path d="M13.4793 3.84857L12.91 4.83438C12.8686 4.90616 12.8574 4.99146 12.8788 5.07152C12.9003 5.15158 12.9526 5.21983 13.0244 5.26127C13.0962 5.30271 13.1815 5.31394 13.2616 5.29249C13.3416 5.27104 13.4099 5.21866 13.4513 5.14688L14.0205 4.16095L13.4793 3.84857Z" fill="url(#paint26_linear_44_1238)"/>
</g>
<defs>
<linearGradient id="paint0_linear_44_1238" x1="5" y1="10.5" x2="15" y2="10.5" gradientUnits="userSpaceOnUse">
<stop stop-color="#F4F42A"/>
<stop offset="1" stop-color="#FFB92B"/>
</linearGradient>
<linearGradient id="paint1_linear_44_1238" x1="9.07784" y1="8.84283" x2="7.29503" y2="6.33158" gradientUnits="userSpaceOnUse">
<stop stop-color="#FEFFC0" stop-opacity="0"/>
<stop offset="1" stop-color="#F8FF9B"/>
</linearGradient>
<linearGradient id="paint2_linear_44_1238" x1="10.3125" y1="2.63188" x2="9.6875" y2="2.63188" gradientUnits="userSpaceOnUse">
<stop stop-color="#F4F42A"/>
<stop offset="1" stop-color="#FFB92B"/>
</linearGradient>
<linearGradient id="paint3_linear_44_1238" x1="6.61379" y1="4.10659" x2="6.21597" y2="4.33659" gradientUnits="userSpaceOnUse">
<stop stop-color="#F4F42A"/>
<stop offset="1" stop-color="#FFB92B"/>
</linearGradient>
<linearGradient id="paint4_linear_44_1238" x1="3.33997" y1="6.29874" x2="3.02059" y2="6.85186" gradientUnits="userSpaceOnUse">
<stop stop-color="#F4F42A"/>
<stop offset="1" stop-color="#FFB92B"/>
</linearGradient>
<linearGradient id="paint5_linear_44_1238" x1="2.77032" y1="10.1875" x2="2.77032" y2="10.7566" gradientUnits="userSpaceOnUse">
<stop stop-color="#F4F42A"/>
<stop offset="1" stop-color="#FFB92B"/>
</linearGradient>
<linearGradient id="paint6_linear_44_1238" x1="3.05408" y1="14.2062" x2="3.32658" y2="14.6781" gradientUnits="userSpaceOnUse">
<stop stop-color="#F4F42A"/>
<stop offset="1" stop-color="#FFB92B"/>
</linearGradient>
<linearGradient id="paint7_linear_44_1238" x1="6.16254" y1="16.6328" x2="6.64723" y2="16.9125" gradientUnits="userSpaceOnUse">
<stop stop-color="#F4F42A"/>
<stop offset="1" stop-color="#FFB92B"/>
</linearGradient>
<linearGradient id="paint8_linear_44_1238" x1="9.6875" y1="18.3684" x2="10.3125" y2="18.3684" gradientUnits="userSpaceOnUse">
<stop stop-color="#F4F42A"/>
<stop offset="1" stop-color="#FFB92B"/>
</linearGradient>
<linearGradient id="paint9_linear_44_1238" x1="13.3445" y1="16.9175" x2="13.8857" y2="16.605" gradientUnits="userSpaceOnUse">
<stop stop-color="#F4F42A"/>
<stop offset="1" stop-color="#FFB92B"/>
</linearGradient>
<linearGradient id="paint10_linear_44_1238" x1="16.6578" y1="14.705" x2="16.9706" y2="14.1634" gradientUnits="userSpaceOnUse">
<stop stop-color="#F4F42A"/>
<stop offset="1" stop-color="#FFB92B"/>
</linearGradient>
<linearGradient id="paint11_linear_44_1238" x1="17.23" y1="10.8125" x2="17.23" y2="10.1875" gradientUnits="userSpaceOnUse">
<stop stop-color="#F4F42A"/>
<stop offset="1" stop-color="#FFB92B"/>
</linearGradient>
<linearGradient id="paint12_linear_44_1238" x1="16.9707" y1="6.83655" x2="16.6578" y2="6.29499" gradientUnits="userSpaceOnUse">
<stop stop-color="#F4F42A"/>
<stop offset="1" stop-color="#FFB92B"/>
</linearGradient>
<linearGradient id="paint13_linear_44_1238" x1="13.8857" y1="4.39502" x2="13.3445" y2="4.08252" gradientUnits="userSpaceOnUse">
<stop stop-color="#F4F42A"/>
<stop offset="1" stop-color="#FFB92B"/>
</linearGradient>
<linearGradient id="paint14_linear_44_1238" x1="9.99999" y1="11.75" x2="9.99999" y2="15.5" gradientUnits="userSpaceOnUse">
<stop stop-color="#FFB92B" stop-opacity="0"/>
<stop offset="1" stop-color="#FFB92B"/>
</linearGradient>
<linearGradient id="paint15_linear_44_1238" x1="1.11097e-07" y1="3" x2="0.3125" y2="4.45094" gradientUnits="userSpaceOnUse">
<stop stop-color="#FFB92B" stop-opacity="0"/>
<stop offset="1" stop-color="#FFB92B"/>
</linearGradient>
<linearGradient id="paint16_linear_44_1238" x1="-2.41019" y1="9.0047" x2="-1.4141" y2="10.105" gradientUnits="userSpaceOnUse">
<stop stop-color="#FFB92B" stop-opacity="0"/>
<stop offset="1" stop-color="#FFB92B"/>
</linearGradient>
<linearGradient id="paint17_linear_44_1238" x1="-1.49524" y1="15.4103" x2="-0.0824805" y2="15.8651" gradientUnits="userSpaceOnUse">
<stop stop-color="#FFB92B" stop-opacity="0"/>
<stop offset="1" stop-color="#FFB92B"/>
</linearGradient>
<linearGradient id="paint18_linear_44_1238" x1="2.5" y1="20.5" x2="3.95094" y2="20.1875" gradientUnits="userSpaceOnUse">
<stop stop-color="#FFB92B" stop-opacity="0"/>
<stop offset="1" stop-color="#FFB92B"/>
</linearGradient>
<linearGradient id="paint19_linear_44_1238" x1="8.50476" y1="22.9103" x2="9.60502" y2="21.9143" gradientUnits="userSpaceOnUse">
<stop stop-color="#FFB92B" stop-opacity="0"/>
<stop offset="1" stop-color="#FFB92B"/>
</linearGradient>
<linearGradient id="paint20_linear_44_1238" x1="14.9104" y1="21.9953" x2="15.3653" y2="20.5825" gradientUnits="userSpaceOnUse">
<stop stop-color="#FFB92B" stop-opacity="0"/>
<stop offset="1" stop-color="#FFB92B"/>
</linearGradient>
<linearGradient id="paint21_linear_44_1238" x1="20" y1="18" x2="19.6875" y2="16.549" gradientUnits="userSpaceOnUse">
<stop stop-color="#FFB92B" stop-opacity="0"/>
<stop offset="1" stop-color="#FFB92B"/>
</linearGradient>
<linearGradient id="paint22_linear_44_1238" x1="22.4102" y1="11.9953" x2="21.4141" y2="10.895" gradientUnits="userSpaceOnUse">
<stop stop-color="#FFB92B" stop-opacity="0"/>
<stop offset="1" stop-color="#FFB92B"/>
</linearGradient>
<linearGradient id="paint23_linear_44_1238" x1="21.4952" y1="5.58971" x2="20.0825" y2="5.13487" gradientUnits="userSpaceOnUse">
<stop stop-color="#FFB92B" stop-opacity="0"/>
<stop offset="1" stop-color="#FFB92B"/>
</linearGradient>
<linearGradient id="paint24_linear_44_1238" x1="17.5" y1="0.5" x2="16.0491" y2="0.8125" gradientUnits="userSpaceOnUse">
<stop stop-color="#FFB92B" stop-opacity="0"/>
<stop offset="1" stop-color="#FFB92B"/>
</linearGradient>
<linearGradient id="paint25_linear_44_1238" x1="11.4952" y1="-1.91031" x2="10.395" y2="-0.91422" gradientUnits="userSpaceOnUse">
<stop stop-color="#FFB92B" stop-opacity="0"/>
<stop offset="1" stop-color="#FFB92B"/>
</linearGradient>
<linearGradient id="paint26_linear_44_1238" x1="5.08959" y1="-0.995304" x2="4.63475" y2="0.417458" gradientUnits="userSpaceOnUse">
<stop stop-color="#FFB92B" stop-opacity="0"/>
<stop offset="1" stop-color="#FFB92B"/>
</linearGradient>
<clipPath id="clip0_44_1238">
<rect width="20" height="20" fill="white" transform="translate(0 0.5)"/>
</clipPath>
</defs>
</svg>
