<svg width="24" height="25" viewBox="0 0 24 25" fill="none" xmlns="http://www.w3.org/2000/svg">
<g clip-path="url(#clip0_169_3268)">
<path d="M18.7217 5.31763C19.4351 5.3184 20.0226 5.88548 20.1494 6.62427C20.2974 6.57445 20.4536 6.54716 20.6143 6.54712H20.6152C21.0423 6.54785 21.4459 6.73442 21.7227 7.05884C21.8501 7.20803 21.9437 7.38352 22.002 7.57056C22.5287 7.3766 23.1387 7.50703 23.5381 7.90454C23.8139 8.1786 23.9654 8.54396 23.9648 8.93188L23.959 16.7454C24.0056 17.5652 23.6898 18.4973 23.0293 19.5139C22.6996 20.0214 22.3464 20.4448 22.1279 20.6838L22.126 24.0266C22.1257 24.3143 21.8922 24.5471 21.6045 24.5471H16.1289C15.9906 24.5471 15.8575 24.4925 15.7598 24.3948C15.662 24.297 15.6073 24.1639 15.6074 24.0256L15.6094 20.9973C14.9342 20.5088 13.3925 19.3778 13.1162 17.4553V17.4543L13.1152 17.4524C13.1148 17.4503 13.115 17.4468 13.1143 17.4426C13.1127 17.4341 13.1095 17.421 13.1064 17.4045C13.1003 17.3716 13.0915 17.3233 13.0801 17.262C13.0572 17.1387 13.0245 16.9625 12.9854 16.7512C12.907 16.3287 12.8027 15.7653 12.6982 15.2014C12.5937 14.6373 12.4897 14.0722 12.4111 13.6477C12.3719 13.4356 12.3384 13.2587 12.3154 13.134C12.304 13.0719 12.2953 13.0224 12.2891 12.9885C12.286 12.9718 12.2839 12.9585 12.2822 12.9495C12.2814 12.945 12.2807 12.9412 12.2803 12.9387C12.2802 12.9382 12.2786 12.933 12.2783 12.9299C12.2163 12.2182 12.6855 11.5384 13.3906 11.3108C13.5471 11.2605 13.7095 11.235 13.873 11.2346H13.874C14.5237 11.2355 15.084 11.6461 15.3057 12.2649L15.3682 7.99536L15.375 7.85181C15.4085 7.51857 15.5548 7.20973 15.7949 6.96997C16.0697 6.69562 16.435 6.54424 16.8232 6.54419H16.8252C16.9867 6.54419 17.1435 6.57148 17.291 6.62134C17.3828 6.08164 17.716 5.62743 18.1973 5.42407C18.3644 5.35341 18.5405 5.31763 18.7207 5.31763H18.7217ZM17.7666 14.0374H17.7646V14.0364C17.7627 14.0364 17.7607 14.0364 17.7588 14.0364V14.0374L17.7539 14.0364L17.752 14.0354C17.472 14.0276 17.2332 13.8005 17.2334 13.5159L17.2383 8.00024C17.2386 7.78986 17.0672 7.60525 16.8574 7.58813C16.6204 7.56885 16.4105 7.76156 16.4102 7.99927V8.00708L16.3047 15.301C16.2999 15.6333 15.9771 15.8785 15.6572 15.7991C15.4845 15.7562 15.3509 15.6263 15.291 15.4631C15.2656 15.3937 14.3512 12.6977 14.3389 12.6594C14.2803 12.4502 14.1361 12.3142 13.9541 12.2834L13.874 12.2766C13.8196 12.2767 13.7637 12.2848 13.71 12.302L13.7109 12.303C13.4705 12.3806 13.3065 12.6048 13.3164 12.8225C13.3167 12.8243 13.3169 12.8268 13.3174 12.8293C13.319 12.8378 13.3212 12.8503 13.3242 12.8665C13.3303 12.8992 13.3393 12.9471 13.3506 13.0081C13.3733 13.1303 13.4064 13.3052 13.4453 13.5149C13.5231 13.9342 13.6267 14.4936 13.7305 15.053C13.936 16.1609 14.1422 17.2732 14.1465 17.2971V17.2981C14.3585 18.8045 15.6704 19.7564 16.2412 20.1692C16.3296 20.2331 16.4009 20.2844 16.458 20.3303C16.5809 20.4294 16.6525 20.5787 16.6523 20.7366L16.6504 23.5051H21.084L21.0859 20.4749C21.0861 20.3235 21.1537 20.1815 21.2666 20.0833C21.4082 19.9471 21.8413 19.4543 22.2295 18.8293C22.6204 18.1999 22.9584 17.447 22.917 16.7932V16.4495C22.9171 16.2339 22.9177 15.9255 22.918 15.5569C22.9185 14.8196 22.9192 13.8373 22.9199 12.8557C22.9207 11.8741 22.9213 10.8924 22.9219 10.1565C22.9222 9.78879 22.9227 9.48238 22.9229 9.26782V8.92993C22.923 8.70647 22.7323 8.52338 22.5088 8.52271C22.2859 8.52216 22.0949 8.70713 22.0947 8.92993L22.0908 13.4778C22.0907 13.5818 22.0584 13.6778 22.0059 13.759L22.0068 13.76C21.9308 13.9055 21.7882 14.0113 21.6191 14.0354L21.5449 14.0403C21.2571 14.0401 21.0232 13.8066 21.0234 13.5188L21.0283 8.00415C21.0282 7.77843 20.84 7.58938 20.6143 7.58911C20.3893 7.58899 20.2003 7.77838 20.2002 8.00317L20.1953 13.5188C20.1948 13.8043 19.954 14.0316 19.6729 14.0374C19.6714 14.0376 19.6695 14.0383 19.6689 14.0383L19.667 14.0393H19.6562C19.6557 14.0393 19.6544 14.0385 19.6533 14.0383C19.3711 14.0334 19.1288 13.8044 19.1289 13.5178L19.1338 6.92407C19.1339 6.76799 19.0844 6.62453 19.0068 6.52173C18.9485 6.4445 18.8761 6.39182 18.7988 6.37036L18.7207 6.35962C18.6811 6.35962 18.6417 6.36792 18.6035 6.38403H18.6025C18.4339 6.45553 18.3059 6.67381 18.3057 6.9231L18.3008 13.5168C18.3005 13.8025 18.0584 14.0295 17.7773 14.0354C17.7759 14.0357 17.775 14.0373 17.7744 14.0374L17.7725 14.0364C17.7705 14.0364 17.7686 14.0374 17.7666 14.0374ZM17.7764 14.0354V14.0364H17.7773L17.7764 14.0354ZM17.7383 14.0276L17.7402 14.0286C17.739 14.0277 17.7377 14.0267 17.7363 14.0256C17.7371 14.0263 17.7377 14.0271 17.7383 14.0276ZM17.7939 14.0256C17.7949 14.0249 17.7959 14.0244 17.7969 14.0237C17.7986 14.0219 17.8009 14.0201 17.8027 14.0178C17.8032 14.0169 17.8033 14.0159 17.8037 14.0149C17.8003 14.0191 17.797 14.0228 17.7939 14.0256Z" fill="#FF99DC" stroke="#FF99DC" stroke-width="0.1"/>
<path d="M6.22192 14.0334C6.2238 14.0339 6.22506 14.0353 6.22583 14.0354L6.22681 14.0344C6.22909 14.0345 6.23136 14.0354 6.23364 14.0354H6.2356L6.23462 14.0344C6.23658 14.0344 6.23852 14.0344 6.24048 14.0344L6.24146 14.0354L6.24731 14.0344L6.24829 14.0334C6.52833 14.0257 6.7671 13.7986 6.76685 13.5139L6.76294 7.99829C6.76244 7.7728 6.95092 7.58451 7.17603 7.58423C7.40789 7.58419 7.58505 7.77467 7.59009 8.00513L7.69556 15.2991C7.70054 15.6424 8.04526 15.8906 8.37134 15.7893C8.57326 15.7264 8.66481 15.5703 8.72681 15.4084L8.78247 15.2483V15.2463C8.78288 15.2451 8.78371 15.2436 8.78442 15.2415C8.78606 15.2366 8.78812 15.2292 8.79126 15.22C8.79767 15.2011 8.80762 15.1732 8.81958 15.1379C8.84354 15.0674 8.8781 14.966 8.91919 14.845C9.00135 14.603 9.11037 14.2802 9.21997 13.9573C9.43715 13.3175 9.65659 12.6726 9.66138 12.6575C9.72834 12.4183 9.90749 12.2759 10.1252 12.2756C10.181 12.2758 10.2364 12.284 10.2893 12.301C10.5304 12.3788 10.694 12.6037 10.6838 12.8215C10.6835 12.8231 10.6833 12.8253 10.6829 12.8274C10.6813 12.8358 10.679 12.8483 10.676 12.8645C10.67 12.8972 10.661 12.9451 10.6497 13.0061C10.627 13.1284 10.5938 13.3033 10.5549 13.5129C10.4771 13.9323 10.3736 14.4916 10.2698 15.051C10.0645 16.1575 9.85852 17.2684 9.85376 17.2952V17.2961C9.64176 18.8025 8.32979 19.7544 7.75903 20.1672C7.67075 20.2311 7.59931 20.2825 7.54224 20.3284C7.41935 20.4274 7.3478 20.5768 7.3479 20.7346L7.34888 23.5032L2.91528 23.5061L2.91431 20.4729C2.91416 20.3588 2.87391 20.2519 2.80688 20.1643L2.73071 20.0833C2.58917 19.9472 2.15637 19.4539 1.7688 18.8284C1.37851 18.1985 1.04176 17.4451 1.08325 16.7913V16.4475C1.08314 16.232 1.08252 15.9244 1.08228 15.5559C1.08178 14.8186 1.08106 13.8356 1.08032 12.8538C1.07958 11.8721 1.07894 10.8905 1.07837 10.1545C1.07808 9.78686 1.07756 9.48045 1.07739 9.26587V8.92798C1.07715 8.70464 1.26811 8.52132 1.49146 8.52075C1.71447 8.52021 1.90535 8.70505 1.90552 8.92798L1.90942 13.4758C1.90953 13.5799 1.9408 13.6768 1.99341 13.7581V13.759C2.08041 13.9251 2.25453 14.0383 2.45532 14.0383L2.56079 14.0276C2.79813 13.9787 2.97699 13.7686 2.97681 13.5168L2.97192 8.00317C2.97209 7.77723 3.16 7.58737 3.38599 7.58716C3.61103 7.58713 3.79983 7.77619 3.80005 8.00122L3.80493 13.5168C3.80537 13.8021 4.0456 14.0292 4.32642 14.0354L4.32739 14.0364C4.32863 14.0366 4.32972 14.0363 4.33032 14.0364C4.33148 14.0365 4.33291 14.0373 4.33325 14.0374H4.33911L4.33813 14.0364C4.33974 14.0364 4.34142 14.0364 4.34302 14.0364L4.34204 14.0374H4.34399L4.34595 14.0364C4.62865 14.032 4.87252 13.8028 4.87231 13.5159L4.86646 6.92212C4.86638 6.76611 4.91597 6.62355 4.99341 6.52075C5.0711 6.41771 5.17363 6.35775 5.27954 6.35767C5.31942 6.35768 5.35937 6.36585 5.39771 6.38208C5.56629 6.45351 5.69429 6.6718 5.69458 6.92114L5.69946 13.5149C5.69972 13.8003 5.94133 14.027 6.22192 14.0334ZM6.22192 14.0334H6.2229L6.22388 14.0344H6.2229L6.22192 14.0334ZM5.27954 5.31567C5.45983 5.3157 5.6359 5.35149 5.80298 5.42212C6.28407 5.62545 6.61642 6.07971 6.70825 6.61938C6.85617 6.56933 7.01398 6.54224 7.17603 6.54224H7.177C7.56479 6.54224 7.93054 6.69363 8.20532 6.96802C8.4795 7.24187 8.63083 7.60592 8.63208 7.99341L8.6936 12.2629C8.91524 11.6439 9.4766 11.2334 10.1252 11.2327L10.2483 11.2375C10.3709 11.2472 10.4915 11.2712 10.6086 11.3088C11.3146 11.5366 11.7842 12.217 11.7219 12.929C11.7216 12.932 11.7201 12.9362 11.72 12.9368C11.7195 12.9393 11.7188 12.943 11.718 12.9475C11.7164 12.9565 11.7143 12.9698 11.7112 12.9866C11.705 13.0204 11.6963 13.0699 11.6848 13.1321C11.6618 13.2567 11.6283 13.4337 11.5891 13.6458C11.5106 14.0702 11.4065 14.6354 11.302 15.1995C11.1975 15.7634 11.0932 16.3268 11.0149 16.7493C10.9757 16.9606 10.943 17.1368 10.9202 17.26C10.9088 17.3213 10.8999 17.3696 10.8938 17.4026C10.8907 17.4191 10.8876 17.4321 10.886 17.4407C10.8852 17.4449 10.8854 17.4483 10.885 17.4504L10.884 17.4524V17.4534C10.6077 19.3766 9.06473 20.5072 8.38989 20.9954L8.39282 24.0237C8.39308 24.3114 8.16004 24.5448 7.87231 24.5452L2.39575 24.55C2.25769 24.55 2.12532 24.4953 2.02759 24.3977C1.92985 24.3001 1.87443 24.1677 1.87427 24.0295L1.87231 20.6829C1.65388 20.444 1.3018 20.0197 0.971924 19.512C0.311324 18.4953 -0.00436501 17.5633 0.0422363 16.7434L0.0354004 8.92896C0.0349257 8.5415 0.186376 8.17668 0.462158 7.90259C0.861285 7.50534 1.47084 7.37521 1.99731 7.5686C2.0556 7.3813 2.15002 7.20622 2.27759 7.05688C2.5541 6.73258 2.95745 6.54597 3.38403 6.54517H3.38501C3.54571 6.54517 3.70188 6.57261 3.84985 6.62231C3.97679 5.88337 4.56531 5.3164 5.27856 5.31567H5.27954ZM6.25903 14.0266H6.26099C6.26171 14.0261 6.26194 14.0246 6.26294 14.0237C6.26155 14.0248 6.26028 14.0257 6.25903 14.0266ZM6.19653 14.0149C6.19922 14.0182 6.20207 14.0215 6.20435 14.0237L6.2063 14.0247C6.2031 14.0217 6.20011 14.0174 6.19653 14.0129V14.0149ZM10.6838 12.8235C10.6988 12.8399 10.7152 12.8445 10.7297 12.8459C10.7319 12.8344 10.7332 12.8271 10.7336 12.8245L10.6838 12.8235Z" fill="#FF99DC" stroke="#FF99DC" stroke-width="0.1"/>
</g>
<defs>
<clipPath id="clip0_169_3268">
<rect width="24" height="24" fill="white" transform="translate(0 0.5)"/>
</clipPath>
</defs>
</svg>
