<svg width="24" height="25" viewBox="0 0 24 25" fill="none" xmlns="http://www.w3.org/2000/svg">
<g clip-path="url(#clip0_169_3273)">
<path d="M17.1484 8.23291C17.435 8.23291 17.6679 8.465 17.668 8.75146C17.668 9.038 17.435 9.27002 17.1484 9.27002H6.83105C6.14044 9.2435 6.15139 8.25683 6.83105 8.23291H17.1484Z" fill="#FF99DC" stroke="#FF99DC" stroke-width="0.1"/>
<path d="M17.1484 10.1085C17.435 10.1085 17.6679 10.3405 17.668 10.627C17.668 10.9135 17.435 11.1456 17.1484 11.1456H6.83105C6.14044 11.119 6.15139 10.1324 6.83105 10.1085H17.1484Z" fill="#FF99DC" stroke="#FF99DC" stroke-width="0.1"/>
<path d="M17.1484 11.984C17.435 11.984 17.6679 12.2161 17.668 12.5026C17.668 12.7891 17.435 13.0211 17.1484 13.0211H6.83105C6.14044 12.9946 6.15139 12.0079 6.83105 11.984H17.1484Z" fill="#FF99DC" stroke="#FF99DC" stroke-width="0.1"/>
<path d="M11.9932 13.8596C12.6805 13.8859 12.675 14.8721 11.9922 14.8967L11.9912 14.8977V14.8967H6.83105C6.14348 14.8707 6.14834 13.8844 6.83105 13.8596H11.9932Z" fill="#FF99DC" stroke="#FF99DC" stroke-width="0.1"/>
<path d="M1.73242 3.98517C4.15027 1.17784 8.56036 0.443655 11.9893 3.36505C14.5374 1.02542 18.5082 0.892206 21.21 3.00665L21.5576 3.29181C25.0076 6.2843 24.5522 11.2934 21.9697 15.0965C22.3115 15.2004 22.6287 15.3615 22.8994 15.5692L22.9004 15.5701C23.6727 16.187 24.0137 16.939 24.0469 17.7332C24.08 18.5254 23.8072 19.3557 23.3584 20.1326C22.4614 21.6853 20.853 23.0442 19.5342 23.4852L19.5215 23.4891V23.4871C19.2986 23.4996 19.0364 23.4266 18.7578 23.2977C18.4783 23.1683 18.1773 22.9804 17.874 22.7576C17.2801 22.3213 16.6752 21.7463 16.2002 21.2059C14.6015 22.3982 13.1858 23.2478 12.001 23.5018L11.9912 23.5047L11.9805 23.5018C10.5513 23.1857 8.73848 22.0238 6.80664 20.4256C5.95096 20.6551 5.09499 20.8848 4.23926 21.1141C3.82424 21.2296 3.37585 21.1134 3.06738 20.8094C2.75477 20.5013 2.6351 20.0637 2.74805 19.6395L3.44336 17.0399C-1.10304 11.6874 -0.693169 6.8017 1.73242 3.98517ZM20.5781 3.8299C18.5045 2.23872 15.0492 1.75293 12.3584 4.44318C12.1557 4.64574 11.8267 4.64575 11.624 4.44318C8.93334 1.75279 5.47804 2.23897 3.4043 3.8299C2.33062 4.65376 1.4082 5.9675 1.09668 7.66779C0.785286 9.36764 1.08357 11.4588 2.45703 13.8377C2.97671 14.7378 3.63428 15.6609 4.41113 16.5809C4.52055 16.7106 4.55949 16.8857 4.51562 17.0496L3.75098 19.907C3.71914 20.027 3.82357 20.1507 3.96191 20.1151L6.80078 19.3533C6.96656 19.3089 7.14433 19.3489 7.27441 19.4608C9.00571 20.9495 10.794 22.076 11.9902 22.4432C12.9244 22.1577 14.2054 21.4202 15.5703 20.3807C14.1999 18.4088 14.7381 16.3859 15.8955 15.5682C16.8052 14.8709 18.2382 14.6794 19.3965 15.534C19.8377 15.2083 20.3192 15.0349 20.7969 14.9832C24.1277 10.3904 23.3027 5.83773 20.5791 3.83087L20.5781 3.8299ZM22.2676 16.3924C21.6365 15.9082 20.585 15.7624 19.7637 16.5838C19.5611 16.7861 19.2329 16.7861 19.0303 16.5838L19.0293 16.5828C18.3002 15.8424 17.2666 15.8354 16.5264 16.3914C15.9566 16.8472 15.7489 17.4104 15.7803 18.0096C15.8119 18.6117 16.086 19.2539 16.4873 19.8621C16.8883 20.4697 17.4138 21.0395 17.9434 21.4959C18.4657 21.9461 18.9891 22.282 19.3965 22.4373C19.7845 22.2897 20.3599 21.9192 20.9404 21.41C21.529 20.8936 22.1195 20.24 22.5215 19.5438C22.9611 18.7823 23.0679 18.1262 22.9814 17.5965C22.895 17.0667 22.6139 16.6581 22.2676 16.3924Z" fill="#FF99DC" stroke="#FF99DC" stroke-width="0.1"/>
</g>
<defs>
<clipPath id="clip0_169_3273">
<rect width="24" height="24" fill="white" transform="translate(0 0.5)"/>
</clipPath>
</defs>
</svg>
