<svg width="20" height="20" viewBox="0 0 20 20" fill="none" xmlns="http://www.w3.org/2000/svg">
<g clip-path="url(#clip0_45_1354)">
<path d="M20 13.8429C19.3017 15.3823 18.2407 16.7295 16.9078 17.7691C15.5748 18.8087 14.0098 19.5096 12.3466 19.8119C10.6835 20.1142 8.97184 20.0088 7.35836 19.5047C5.74488 19.0006 4.27764 18.1129 3.08236 16.9176C1.88707 15.7223 0.999368 14.2551 0.495295 12.6416C-0.00877823 11.0281 -0.114193 9.3165 0.188082 7.65336C0.490356 5.99022 1.19131 4.42514 2.23089 3.09222C3.27047 1.75929 4.61769 0.698253 6.15712 0C5.54441 1.34564 5.22775 2.80715 5.22855 4.28571C5.22667 5.66325 5.49661 7.02761 6.0229 8.30065C6.54919 9.57368 7.32149 10.7304 8.29555 11.7044C9.26961 12.6785 10.4263 13.4508 11.6993 13.9771C12.9724 14.5034 14.3367 14.7733 15.7143 14.7714C17.1928 14.7722 18.6543 14.4556 20 13.8429Z" fill="url(#paint0_linear_45_1354)"/>
<path d="M16.1285 1.84286L17.1428 0L18.1571 1.84286L19.9999 2.85714L18.1571 3.87143L17.1428 5.71429L16.1285 3.87143L14.2856 2.85714L16.1285 1.84286Z" fill="url(#paint1_linear_45_1354)"/>
<path d="M9.49986 3.78569L9.99986 2.85712L10.4999 3.78569L11.4284 4.28569L10.4999 4.78569L9.99986 5.71426L9.49986 4.78569L8.57129 4.28569L9.49986 3.78569Z" fill="url(#paint2_linear_45_1354)"/>
<path d="M14.0284 9.02855L14.2856 8.57141L14.5427 9.02855L14.9999 9.2857L14.5427 9.54284L14.2856 9.99998L14.0284 9.54284L13.5713 9.2857L14.0284 9.02855Z" fill="url(#paint3_linear_45_1354)"/>
</g>
<defs>
<linearGradient id="paint0_linear_45_1354" x1="11.5714" y1="20.0714" x2="7.51426" y2="-0.228571" gradientUnits="userSpaceOnUse">
<stop stop-color="#90C4EE"/>
<stop offset="1" stop-color="#D9EDE8"/>
</linearGradient>
<linearGradient id="paint1_linear_45_1354" x1="19.1348" y1="4.17739" x2="15.1655" y2="1.54129" gradientUnits="userSpaceOnUse">
<stop stop-color="#F49107"/>
<stop offset="1" stop-color="#FFEEB0"/>
</linearGradient>
<linearGradient id="paint2_linear_45_1354" x1="10.9941" y1="4.94496" x2="9.01453" y2="3.63196" gradientUnits="userSpaceOnUse">
<stop stop-color="#F49107"/>
<stop offset="1" stop-color="#FFEEB0"/>
</linearGradient>
<linearGradient id="paint3_linear_45_1354" x1="14.7816" y1="9.62127" x2="13.7918" y2="8.95467" gradientUnits="userSpaceOnUse">
<stop stop-color="#F49107"/>
<stop offset="1" stop-color="#FFEEB0"/>
</linearGradient>
<clipPath id="clip0_45_1354">
<rect width="20" height="20" fill="white"/>
</clipPath>
</defs>
</svg>
