<svg width="20" height="20" viewBox="0 0 20 20" fill="none" xmlns="http://www.w3.org/2000/svg">
<path d="M17.6577 5.22233C17.3566 3.86399 16.0397 2.619 14.6771 2.35326C13.847 2.19146 11.532 1.98404 10.0001 2.00333C8.46864 1.9864 6.15362 2.19146 5.32347 2.35749C3.95949 2.62135 2.64254 3.86634 2.34293 5.22657C2.17173 6.05201 2.00334 7.17377 2.00052 8.70708C1.9977 10.2404 2.17173 11.3612 2.34293 12.1876C2.64395 13.5464 3.9609 14.7909 5.32347 15.0567C5.77171 15.146 6.65265 15.2472 7.60979 15.3186C7.7186 15.4889 7.83618 15.6701 7.96255 15.8624C8.47052 16.6314 8.85902 17.1676 9.15345 17.5405C9.64354 18.1623 10.357 18.1623 10.8467 17.5405C11.1411 17.1676 11.5296 16.6314 12.0376 15.8624C12.1646 15.6698 12.2823 15.4886 12.3908 15.3186C13.3475 15.2472 14.2289 15.146 14.6771 15.0567C16.0411 14.7923 17.3581 13.5478 17.6577 12.1876C17.8289 11.3626 17.9972 10.2404 18.0001 8.70708C18.0029 7.17377 17.8289 6.04825 17.6577 5.22233Z" fill="url(#paint0_linear_45_1347)"/>
<path d="M10.8841 13.347C10.8635 13.4444 10.815 13.5337 10.7446 13.6041C10.6743 13.6745 10.585 13.7229 10.4876 13.7435C10.1648 13.7937 9.83626 13.7937 9.5135 13.7435C9.41612 13.7229 9.32682 13.6745 9.25644 13.6041C9.18605 13.5337 9.13762 13.4444 9.11701 13.347C9.06684 13.0243 9.06684 12.6957 9.11701 12.3729C9.138 12.2757 9.18656 12.1866 9.25688 12.1163C9.3272 12.046 9.4163 11.9974 9.5135 11.9764C9.8363 11.9269 10.1648 11.9269 10.4876 11.9764C10.5848 11.9974 10.6739 12.046 10.7442 12.1163C10.8145 12.1866 10.8631 12.2757 10.8841 12.3729C10.9342 12.6957 10.9342 13.0243 10.8841 13.347ZM12.7861 8.22924C12.5453 8.57024 12.1836 8.8816 11.6488 9.20896C10.9716 9.62662 10.8629 9.79782 10.8629 10.1341V10.2668C10.8656 10.3819 10.8452 10.4964 10.803 10.6035C10.7608 10.7107 10.6976 10.8083 10.6172 10.8907C10.5367 10.9731 10.4406 11.0385 10.3344 11.0832C10.2283 11.1279 10.1143 11.1509 9.99913 11.1509C9.88397 11.1509 9.76997 11.1279 9.66383 11.0832C9.5577 11.0385 9.46157 10.9731 9.38109 10.8907C9.30062 10.8083 9.23742 10.7107 9.19522 10.6035C9.15302 10.4964 9.13266 10.3819 9.13535 10.2668V9.95915C9.13535 9.56265 9.23459 9.22636 9.43825 8.93146C9.63579 8.64502 9.93163 8.39057 10.3705 8.13188C11.1799 7.6559 11.3276 7.38874 11.3276 7.03411C11.3276 6.58822 10.948 6.30038 10.3606 6.30038C9.71716 6.30038 9.29809 6.59293 9.11512 7.16956C9.05608 7.35534 8.93912 7.51734 8.78136 7.63184C8.62361 7.74635 8.43334 7.80736 8.23841 7.80593C8.21631 7.80593 8.19373 7.80593 8.17115 7.80358C8.03124 7.79382 7.89542 7.75222 7.77404 7.68196C7.65266 7.61169 7.54895 7.51462 7.47082 7.39815C7.39279 7.2836 7.34198 7.15273 7.32225 7.01554C7.30252 6.87835 7.31441 6.73846 7.35699 6.60657C7.54427 6.00556 7.9287 5.48525 8.44818 5.1297C8.97214 4.77271 9.63344 4.58411 10.3606 4.58411C11.116 4.58411 11.8186 4.82539 12.336 5.26281C12.5942 5.47503 12.8022 5.74184 12.945 6.04404C13.0879 6.34625 13.1619 6.67634 13.1619 7.01059C13.1701 7.44653 13.0384 7.87361 12.7861 8.22924Z" fill="url(#paint1_linear_45_1347)"/>
<defs>
<linearGradient id="paint0_linear_45_1347" x1="15.9452" y1="14.647" x2="4.05497" y2="2.75681" gradientUnits="userSpaceOnUse">
<stop stop-color="#FE7838"/>
<stop offset="0.54" stop-color="#FE7636"/>
<stop offset="1" stop-color="#FFAD8A"/>
</linearGradient>
<linearGradient id="paint1_linear_45_1347" x1="12.859" y1="11.4896" x2="7.43836" y2="6.06897" gradientUnits="userSpaceOnUse">
<stop stop-color="#FFDDCE"/>
<stop offset="0.57" stop-color="white"/>
<stop offset="1" stop-color="white"/>
</linearGradient>
</defs>
</svg>
