<svg width="20" height="20" viewBox="0 0 20 20" fill="none" xmlns="http://www.w3.org/2000/svg">
<g clip-path="url(#clip0_45_1466)">
<path d="M9.99994 14.8671C11.7654 14.8671 13.1967 13.4359 13.1967 11.6704C13.1967 9.90491 11.7654 8.47369 9.99994 8.47369C8.23444 8.47369 6.80322 9.90491 6.80322 11.6704C6.80322 13.4359 8.23444 14.8671 9.99994 14.8671Z" fill="url(#paint0_linear_45_1466)"/>
<path d="M6.80322 11.6704C6.80322 13.4359 8.23443 14.8671 9.99994 14.8671C11.7654 14.8671 13.1967 13.4359 13.1967 11.6704C13.1967 11.288 13.1293 10.9214 13.0062 10.5816H6.99369C6.87057 10.9214 6.80322 11.288 6.80322 11.6704Z" fill="url(#paint1_linear_45_1466)"/>
<path d="M7.73944 13.9308C8.98784 15.1792 11.0119 15.1792 12.2603 13.9308C13.5087 12.6824 13.5087 10.6583 12.2603 9.40991C11.9899 9.13952 11.6831 8.92796 11.3557 8.77472L7.10425 13.0262C7.25749 13.3536 7.46909 13.6604 7.73944 13.9308Z" fill="url(#paint2_linear_45_1466)"/>
<path d="M14.1869 20H5.81312C5.55269 20 5.34155 19.7889 5.34155 19.5284V19.034C5.34155 17.0621 6.94007 15.4636 8.91194 15.4636H11.0881C13.06 15.4636 14.6585 17.0621 14.6585 19.034V19.5284C14.6585 19.7889 14.4474 20 14.1869 20Z" fill="url(#paint3_linear_45_1466)"/>
<path d="M5.34155 19.0339V19.5284C5.34155 19.7889 5.55269 20 5.81312 20H14.1869C14.4474 20 14.6585 19.7889 14.6585 19.5284V19.0339C14.6585 18.0915 14.2932 17.2344 13.6966 16.5963H6.30347C5.70687 17.2344 5.34155 18.0915 5.34155 19.0339Z" fill="url(#paint4_linear_45_1466)"/>
<path d="M11.088 15.4636H9.61987V20H14.1869C14.4473 20 14.6585 19.7889 14.6585 19.5284V19.034C14.6584 17.0621 13.0599 15.4636 11.088 15.4636Z" fill="url(#paint5_linear_45_1466)"/>
<path d="M3.35371 10.1136C5.20591 10.1136 6.70742 8.61204 6.70742 6.75984C6.70742 4.90764 5.20591 3.40613 3.35371 3.40613C1.50151 3.40613 0 4.90764 0 6.75984C0 8.61204 1.50151 10.1136 3.35371 10.1136Z" fill="url(#paint6_linear_45_1466)"/>
<path d="M0 6.75982C0 8.61201 1.50148 10.1135 3.35371 10.1135C5.2059 10.1135 6.70742 8.61201 6.70742 6.75982C6.70742 6.35869 6.63676 5.97412 6.50758 5.61755H0.199844C0.0706641 5.97412 0 6.35869 0 6.75982Z" fill="url(#paint7_linear_45_1466)"/>
<path d="M0.982324 9.13124C2.29201 10.4409 4.41545 10.4409 5.72518 9.13124C7.03486 7.82155 7.03486 5.69808 5.72518 4.38839C5.44154 4.10476 5.11963 3.88277 4.77619 3.72198L0.315918 8.18226C0.476738 8.5257 0.698691 8.84761 0.982324 9.13124Z" fill="url(#paint8_linear_45_1466)"/>
<path d="M3.35372 8.91802C2.97052 8.91802 2.6111 8.74256 2.34165 8.42396C2.27227 8.34193 2.28255 8.21916 2.36458 8.14978C2.44661 8.08045 2.56938 8.09068 2.63876 8.17271C2.83302 8.4024 3.08688 8.52888 3.35368 8.52888C3.62048 8.52888 3.87438 8.4024 4.0686 8.17271C4.13798 8.09064 4.26075 8.08037 4.34278 8.14978C4.42485 8.21916 4.43512 8.34193 4.36571 8.42396C4.09634 8.74256 3.73692 8.91802 3.35372 8.91802Z" fill="url(#paint9_linear_45_1466)"/>
<path d="M2.24379 7.43005C2.13633 7.43005 2.04922 7.34294 2.04922 7.23548C2.04922 7.06102 1.9073 6.91911 1.73285 6.91911C1.5584 6.91911 1.41648 7.06102 1.41648 7.23548C1.41648 7.34294 1.32937 7.43005 1.22191 7.43005C1.11445 7.43005 1.02734 7.34294 1.02734 7.23548C1.02734 6.84645 1.34383 6.52997 1.73285 6.52997C2.12188 6.52997 2.43836 6.84645 2.43836 7.23548C2.43836 7.34294 2.35125 7.43005 2.24379 7.43005Z" fill="url(#paint10_linear_45_1466)"/>
<path d="M5.48573 7.43005C5.37827 7.43005 5.29116 7.34294 5.29116 7.23548C5.29116 7.06102 5.14925 6.91911 4.97479 6.91911C4.80034 6.91911 4.65843 7.06102 4.65843 7.23548C4.65843 7.34294 4.57132 7.43005 4.46386 7.43005C4.3564 7.43005 4.26929 7.34294 4.26929 7.23548C4.26929 6.84645 4.58577 6.52997 4.97479 6.52997C5.36382 6.52997 5.6803 6.84645 5.6803 7.23548C5.6803 7.34294 5.59319 7.43005 5.48573 7.43005Z" fill="url(#paint11_linear_45_1466)"/>
<path d="M16.6462 10.1136C18.4984 10.1136 19.9999 8.61204 19.9999 6.75984C19.9999 4.90764 18.4984 3.40613 16.6462 3.40613C14.794 3.40613 13.2925 4.90764 13.2925 6.75984C13.2925 8.61204 14.794 10.1136 16.6462 10.1136Z" fill="url(#paint12_linear_45_1466)"/>
<path d="M13.2925 6.75982C13.2925 8.61201 14.794 10.1135 16.6462 10.1135C18.4984 10.1135 19.9999 8.61201 19.9999 6.75982C19.9999 6.35869 19.9292 5.97412 19.8001 5.61755H13.4923C13.3631 5.97412 13.2925 6.35869 13.2925 6.75982Z" fill="url(#paint13_linear_45_1466)"/>
<path d="M14.2748 9.13124C15.5845 10.4409 17.7079 10.4409 19.0177 9.13124C20.3273 7.82155 20.3273 5.69808 19.0177 4.38839C18.734 4.10476 18.4121 3.88277 18.0687 3.72198L13.6084 8.18226C13.7692 8.5257 13.9912 8.84761 14.2748 9.13124Z" fill="url(#paint14_linear_45_1466)"/>
<path d="M16.6462 8.10376C16.263 8.10376 15.9036 8.27923 15.6341 8.59782C15.5648 8.67985 15.575 8.80263 15.6571 8.872C15.7391 8.94134 15.8619 8.9311 15.9313 8.84907C16.1255 8.61938 16.3794 8.4929 16.6462 8.4929C16.913 8.4929 17.1669 8.61938 17.3611 8.84907C17.4305 8.93114 17.5533 8.94142 17.6353 8.872C17.7174 8.80263 17.7277 8.67985 17.6583 8.59782C17.3889 8.27919 17.0294 8.10376 16.6462 8.10376Z" fill="url(#paint15_linear_45_1466)"/>
<path d="M14.9864 7.51638C14.6538 7.51638 14.3843 7.24677 14.3843 6.91423V6.60544C14.3843 6.27287 14.6539 6.0033 14.9864 6.0033C15.319 6.0033 15.5886 6.27291 15.5886 6.60544V6.91423C15.5886 7.24677 15.319 7.51638 14.9864 7.51638Z" fill="url(#paint16_linear_45_1466)"/>
<path d="M18.3058 7.51638C17.9732 7.51638 17.7036 7.24677 17.7036 6.91423V6.60544C17.7036 6.27287 17.9732 6.0033 18.3058 6.0033C18.6383 6.0033 18.9079 6.27291 18.9079 6.60544V6.91423C18.9079 7.24677 18.6383 7.51638 18.3058 7.51638Z" fill="url(#paint17_linear_45_1466)"/>
<path d="M19.3826 8.29611C19.3826 8.59345 19.1416 8.83447 18.8443 8.83447C18.5469 8.83447 18.3059 8.59345 18.3059 8.29611C18.3059 7.99876 18.547 7.51642 18.8443 7.51642C19.1416 7.51642 19.3826 7.9988 19.3826 8.29611Z" fill="url(#paint18_linear_45_1466)"/>
<path d="M9.99995 6.70742C11.8522 6.70742 13.3537 5.20591 13.3537 3.35371C13.3537 1.50151 11.8522 0 9.99995 0C8.14775 0 6.64624 1.50151 6.64624 3.35371C6.64624 5.20591 8.14775 6.70742 9.99995 6.70742Z" fill="url(#paint19_linear_45_1466)"/>
<path d="M6.64624 3.35369C6.64624 5.20588 8.14772 6.7074 9.99995 6.7074C11.8521 6.7074 13.3537 5.20588 13.3537 3.35369C13.3537 2.95256 13.283 2.56799 13.1538 2.21143H6.84608C6.71694 2.56795 6.64624 2.95252 6.64624 3.35369Z" fill="url(#paint20_linear_45_1466)"/>
<path d="M7.62856 5.72511C8.93825 7.0348 11.0617 7.0348 12.3714 5.72511C13.6811 4.41543 13.6811 2.29195 12.3714 0.982263C12.0878 0.69863 11.7659 0.476638 11.4224 0.315857L6.96216 4.77613C7.12294 5.11957 7.34489 5.44144 7.62856 5.72511Z" fill="url(#paint21_linear_45_1466)"/>
<path d="M9.99996 4.69763C9.61676 4.69763 9.25734 4.8731 8.98789 5.19169C8.91851 5.27373 8.92879 5.3965 9.01082 5.46587C9.09285 5.53521 9.21562 5.52498 9.28504 5.44294C9.47929 5.21326 9.73316 5.08677 9.99996 5.08677C10.2668 5.08677 10.5207 5.21326 10.7149 5.44294C10.7843 5.52501 10.907 5.53529 10.9891 5.46587C11.0711 5.3965 11.0814 5.27373 11.012 5.19169C10.7426 4.8731 10.3832 4.69763 9.99996 4.69763Z" fill="url(#paint22_linear_45_1466)"/>
<path d="M8.94258 3.307V3.49071C8.94258 3.81497 8.69352 4.09403 8.36965 4.10942C8.02387 4.12587 7.73828 3.85036 7.73828 3.50817V3.19919C7.73828 3.03247 7.80613 2.88141 7.91578 2.77239C7.98742 2.70118 8.10055 2.69274 8.18594 2.74669L8.87289 3.18055C8.91625 3.20798 8.94258 3.25571 8.94258 3.307Z" fill="url(#paint23_linear_45_1466)"/>
<path d="M12.2617 3.1992V3.49135C12.2617 3.81564 12.0122 4.09455 11.6883 4.10947C11.3425 4.12541 11.0574 3.85006 11.0574 3.50818V3.30701C11.0574 3.25568 11.0837 3.20795 11.1271 3.18057L11.8141 2.74662C11.8995 2.69271 12.0123 2.70131 12.0842 2.77217C12.0846 2.7726 12.085 2.77303 12.0855 2.77342C12.1945 2.8824 12.2617 3.03279 12.2617 3.1992Z" fill="url(#paint24_linear_45_1466)"/>
</g>
<defs>
<linearGradient id="paint0_linear_45_1466" x1="8.9508" y1="10.6213" x2="11.3279" y2="12.9984" gradientUnits="userSpaceOnUse">
<stop stop-color="#FFDFCF"/>
<stop offset="1" stop-color="#FFA78F"/>
</linearGradient>
<linearGradient id="paint1_linear_45_1466" x1="9.99994" y1="11.8641" x2="9.99994" y2="14.8575" gradientUnits="userSpaceOnUse">
<stop stop-color="#F89580" stop-opacity="0"/>
<stop offset="0.2622" stop-color="#F3917C" stop-opacity="0.263"/>
<stop offset="0.5812" stop-color="#E48671" stop-opacity="0.583"/>
<stop offset="0.9283" stop-color="#CB755E" stop-opacity="0.931"/>
<stop offset="0.9972" stop-color="#C5715A"/>
</linearGradient>
<linearGradient id="paint2_linear_45_1466" x1="10.2789" y1="11.9494" x2="12.2908" y2="13.9614" gradientUnits="userSpaceOnUse">
<stop stop-color="#F89580" stop-opacity="0"/>
<stop offset="0.2622" stop-color="#F3917C" stop-opacity="0.263"/>
<stop offset="0.5812" stop-color="#E48671" stop-opacity="0.583"/>
<stop offset="0.9283" stop-color="#CB755E" stop-opacity="0.931"/>
<stop offset="0.9972" stop-color="#C5715A"/>
</linearGradient>
<linearGradient id="paint3_linear_45_1466" x1="9.09894" y1="16.1816" x2="10.5008" y2="20.631" gradientUnits="userSpaceOnUse">
<stop stop-color="#EAF9FA"/>
<stop offset="1" stop-color="#C8EFFE"/>
</linearGradient>
<linearGradient id="paint4_linear_45_1466" x1="10" y1="18.063" x2="10" y2="19.8956" gradientUnits="userSpaceOnUse">
<stop stop-color="#B3DAFE" stop-opacity="0"/>
<stop offset="0.2076" stop-color="#AFD8FE" stop-opacity="0.208"/>
<stop offset="0.4339" stop-color="#A2D3FE" stop-opacity="0.434"/>
<stop offset="0.6688" stop-color="#8CCAFE" stop-opacity="0.669"/>
<stop offset="0.9085" stop-color="#6EBDFE" stop-opacity="0.909"/>
<stop offset="1" stop-color="#60B7FF"/>
</linearGradient>
<linearGradient id="paint5_linear_45_1466" x1="11.0318" y1="17.8035" x2="14.5263" y2="17.5191" gradientUnits="userSpaceOnUse">
<stop stop-color="#B3DAFE" stop-opacity="0"/>
<stop offset="0.2076" stop-color="#AFD8FE" stop-opacity="0.208"/>
<stop offset="0.4339" stop-color="#A2D3FE" stop-opacity="0.434"/>
<stop offset="0.6688" stop-color="#8CCAFE" stop-opacity="0.669"/>
<stop offset="0.9085" stop-color="#6EBDFE" stop-opacity="0.909"/>
<stop offset="1" stop-color="#60B7FF"/>
</linearGradient>
<linearGradient id="paint6_linear_45_1466" x1="2.05789" y1="5.46402" x2="5.1066" y2="8.51273" gradientUnits="userSpaceOnUse">
<stop stop-color="#FFF5C6"/>
<stop offset="1" stop-color="#FAC600"/>
</linearGradient>
<linearGradient id="paint7_linear_45_1466" x1="3.35371" y1="6.80224" x2="3.35371" y2="10.7474" gradientUnits="userSpaceOnUse">
<stop stop-color="#FEA613" stop-opacity="0"/>
<stop offset="0.1766" stop-color="#FDA116" stop-opacity="0.177"/>
<stop offset="0.3939" stop-color="#FA921D" stop-opacity="0.394"/>
<stop offset="0.6325" stop-color="#F4792A" stop-opacity="0.633"/>
<stop offset="0.8846" stop-color="#ED573B" stop-opacity="0.885"/>
<stop offset="1" stop-color="#E94444"/>
</linearGradient>
<linearGradient id="paint8_linear_45_1466" x1="3.38045" y1="6.78637" x2="6.31643" y2="9.72236" gradientUnits="userSpaceOnUse">
<stop stop-color="#FEA613" stop-opacity="0"/>
<stop offset="0.1766" stop-color="#FDA116" stop-opacity="0.177"/>
<stop offset="0.3939" stop-color="#FA921D" stop-opacity="0.394"/>
<stop offset="0.6325" stop-color="#F4792A" stop-opacity="0.633"/>
<stop offset="0.8846" stop-color="#ED573B" stop-opacity="0.885"/>
<stop offset="1" stop-color="#E94444"/>
</linearGradient>
<linearGradient id="paint9_linear_45_1466" x1="2.78266" y1="7.73072" x2="3.92473" y2="8.87279" gradientUnits="userSpaceOnUse">
<stop stop-color="#444444"/>
<stop offset="1" stop-color="#0B1B4C"/>
</linearGradient>
<linearGradient id="paint10_linear_45_1466" x1="1.02734" y1="6.98001" x2="2.43836" y2="6.98001" gradientUnits="userSpaceOnUse">
<stop stop-color="#444444"/>
<stop offset="1" stop-color="#0B1B4C"/>
</linearGradient>
<linearGradient id="paint11_linear_45_1466" x1="4.26929" y1="6.98001" x2="5.6803" y2="6.98001" gradientUnits="userSpaceOnUse">
<stop stop-color="#444444"/>
<stop offset="1" stop-color="#0B1B4C"/>
</linearGradient>
<linearGradient id="paint12_linear_45_1466" x1="15.3504" y1="5.46402" x2="18.3991" y2="8.51273" gradientUnits="userSpaceOnUse">
<stop stop-color="#BBF49B"/>
<stop offset="1" stop-color="#0BB494"/>
</linearGradient>
<linearGradient id="paint13_linear_45_1466" x1="16.6462" y1="6.80224" x2="16.6462" y2="10.7474" gradientUnits="userSpaceOnUse">
<stop stop-color="#00A887" stop-opacity="0"/>
<stop offset="0.3106" stop-color="#00A387" stop-opacity="0.311"/>
<stop offset="0.6639" stop-color="#009589" stop-opacity="0.664"/>
<stop offset="1" stop-color="#00818B"/>
</linearGradient>
<linearGradient id="paint14_linear_45_1466" x1="16.6709" y1="6.78634" x2="19.6069" y2="9.72233" gradientUnits="userSpaceOnUse">
<stop stop-color="#00A887" stop-opacity="0"/>
<stop offset="0.3106" stop-color="#00A387" stop-opacity="0.311"/>
<stop offset="0.6639" stop-color="#009589" stop-opacity="0.664"/>
<stop offset="1" stop-color="#00818B"/>
</linearGradient>
<linearGradient id="paint15_linear_45_1466" x1="16.0752" y1="9.29103" x2="17.2173" y2="8.14895" gradientUnits="userSpaceOnUse">
<stop stop-color="#444444"/>
<stop offset="1" stop-color="#0B1B4C"/>
</linearGradient>
<linearGradient id="paint16_linear_45_1466" x1="14.5937" y1="6.47072" x2="15.4297" y2="7.08615" gradientUnits="userSpaceOnUse">
<stop stop-color="#444444"/>
<stop offset="1" stop-color="#0B1B4C"/>
</linearGradient>
<linearGradient id="paint17_linear_45_1466" x1="17.913" y1="6.47072" x2="18.7491" y2="7.08615" gradientUnits="userSpaceOnUse">
<stop stop-color="#444444"/>
<stop offset="1" stop-color="#0B1B4C"/>
</linearGradient>
<linearGradient id="paint18_linear_45_1466" x1="18.606" y1="8.07357" x2="19.2558" y2="8.38915" gradientUnits="userSpaceOnUse">
<stop stop-color="#D4F2F6"/>
<stop offset="1" stop-color="#03BED7"/>
</linearGradient>
<linearGradient id="paint19_linear_45_1466" x1="8.70413" y1="2.05789" x2="11.7529" y2="5.1066" gradientUnits="userSpaceOnUse">
<stop stop-color="#FFA1AE"/>
<stop offset="1" stop-color="#E41F2D"/>
</linearGradient>
<linearGradient id="paint20_linear_45_1466" x1="9.99995" y1="3.39611" x2="9.99995" y2="7.34127" gradientUnits="userSpaceOnUse">
<stop stop-color="#C41926" stop-opacity="0"/>
<stop offset="0.1758" stop-color="#C01A27" stop-opacity="0.176"/>
<stop offset="0.3761" stop-color="#B21E29" stop-opacity="0.376"/>
<stop offset="0.5886" stop-color="#9B242C" stop-opacity="0.589"/>
<stop offset="0.8079" stop-color="#7B2D31" stop-opacity="0.808"/>
<stop offset="1" stop-color="#593636"/>
</linearGradient>
<linearGradient id="paint21_linear_45_1466" x1="10.0257" y1="3.38074" x2="12.9616" y2="6.31672" gradientUnits="userSpaceOnUse">
<stop stop-color="#C41926" stop-opacity="0"/>
<stop offset="0.1758" stop-color="#C01A27" stop-opacity="0.176"/>
<stop offset="0.3761" stop-color="#B21E29" stop-opacity="0.376"/>
<stop offset="0.5886" stop-color="#9B242C" stop-opacity="0.589"/>
<stop offset="0.8079" stop-color="#7B2D31" stop-opacity="0.808"/>
<stop offset="1" stop-color="#593636"/>
</linearGradient>
<linearGradient id="paint22_linear_45_1466" x1="9.4289" y1="5.88494" x2="10.571" y2="4.74287" gradientUnits="userSpaceOnUse">
<stop stop-color="#444444"/>
<stop offset="1" stop-color="#0B1B4C"/>
</linearGradient>
<linearGradient id="paint23_linear_45_1466" x1="7.8668" y1="3.17333" x2="8.69988" y2="3.78657" gradientUnits="userSpaceOnUse">
<stop stop-color="#444444"/>
<stop offset="1" stop-color="#0B1B4C"/>
</linearGradient>
<linearGradient id="paint24_linear_45_1466" x1="11.3692" y1="3.14264" x2="12.1109" y2="3.68857" gradientUnits="userSpaceOnUse">
<stop stop-color="#444444"/>
<stop offset="1" stop-color="#0B1B4C"/>
</linearGradient>
<clipPath id="clip0_45_1466">
<rect width="20" height="20" fill="white"/>
</clipPath>
</defs>
</svg>
