<svg width="24" height="25" viewBox="0 0 24 25" fill="none" xmlns="http://www.w3.org/2000/svg">
<g clip-path="url(#clip0_169_3334)">
<mask id="path-1-outside-1_169_3334" maskUnits="userSpaceOnUse" x="-0.578125" y="-0.078125" width="25" height="25" fill="black">
<rect fill="white" x="-0.578125" y="-0.078125" width="25" height="25"/>
<path d="M6.28022 12.3615C3.04987 12.3615 0.421875 14.9895 0.421875 18.2198C0.421875 21.4501 3.04987 24.0781 6.28022 24.0781C9.51056 24.0781 12.1386 21.4501 12.1386 18.2198C12.1386 14.9894 9.51052 12.3615 6.28022 12.3615ZM6.28022 23.4219C3.41175 23.4219 1.07812 21.0882 1.07812 18.2198C1.07812 15.3513 3.41175 13.0177 6.28022 13.0177C9.14869 13.0177 11.4823 15.3513 11.4823 18.2198C11.4823 21.0882 9.14864 23.4219 6.28022 23.4219ZM9.72539 16.7844C9.90661 16.7844 10.0535 16.9313 10.0535 17.1125C10.0535 17.8277 9.47166 18.4095 8.75648 18.4095C8.04131 18.4095 7.45945 17.8277 7.45945 17.1125C7.45945 16.9313 7.60636 16.7844 7.78758 16.7844C7.9688 16.7844 8.1157 16.9313 8.1157 17.1125C8.1157 17.4658 8.40314 17.7533 8.75648 17.7533C9.10983 17.7533 9.39727 17.4658 9.39727 17.1125C9.39727 16.9313 9.54413 16.7844 9.72539 16.7844ZM3.80391 18.4095C3.08873 18.4095 2.50688 17.8277 2.50688 17.1125C2.50688 16.9313 2.65378 16.7844 2.835 16.7844C3.01622 16.7844 3.16313 16.9313 3.16313 17.1125C3.16313 17.4658 3.45056 17.7533 3.80391 17.7533C4.15725 17.7533 4.44469 17.4658 4.44469 17.1125C4.44469 16.9313 4.59159 16.7844 4.77281 16.7844C4.95403 16.7844 5.10094 16.9313 5.10094 17.1125C5.10094 17.8277 4.51908 18.4095 3.80391 18.4095ZM8.331 21.0387C8.4195 21.1969 8.36306 21.3968 8.20491 21.4853C8.15423 21.5136 8.0992 21.5271 8.04502 21.5271C7.93003 21.5271 7.81847 21.4666 7.75837 21.3592C7.4573 20.8211 6.90473 20.4999 6.28027 20.4999C5.6558 20.4999 5.10323 20.8211 4.80216 21.3592C4.7137 21.5173 4.51397 21.5739 4.35562 21.4853C4.19747 21.3968 4.14103 21.1969 4.22953 21.0387C4.64822 20.2904 5.41486 19.8436 6.28031 19.8436C7.14577 19.8436 7.91231 20.2904 8.331 21.0387ZM17.7198 0.921875C14.4895 0.921875 11.8614 3.54987 11.8614 6.78022C11.8614 10.0106 14.4894 12.6386 17.7198 12.6386C20.9501 12.6386 23.5781 10.0105 23.5781 6.78022C23.5781 3.54992 20.9501 0.921875 17.7198 0.921875ZM17.7198 11.9823C14.8514 11.9823 12.5176 9.64864 12.5176 6.78017C12.5176 3.9117 14.8514 1.57812 17.7198 1.57812C20.5882 1.57812 22.9219 3.91175 22.9219 6.78022C22.9219 9.64869 20.5882 11.9823 17.7198 11.9823ZM15.2435 6.00102C14.8901 6.00102 14.6027 6.28845 14.6027 6.6418C14.6027 6.82302 14.4558 6.96992 14.2746 6.96992C14.0933 6.96992 13.9464 6.82302 13.9464 6.6418C13.9464 5.92662 14.5283 5.34477 15.2435 5.34477C15.9586 5.34477 16.5405 5.92662 16.5405 6.6418C16.5405 6.82302 16.3936 6.96992 16.2124 6.96992C16.0312 6.96992 15.8843 6.82302 15.8843 6.6418C15.8843 6.28845 15.5968 6.00102 15.2435 6.00102ZM21.4931 6.6418C21.4931 6.82302 21.3462 6.96992 21.165 6.96992C20.9838 6.96992 20.8369 6.82302 20.8369 6.6418C20.8369 6.28845 20.5494 6.00102 20.196 6.00102C19.8428 6.00102 19.5553 6.28845 19.5553 6.6418C19.5553 6.82302 19.4084 6.96992 19.2272 6.96992C19.046 6.96992 18.8991 6.82302 18.8991 6.6418C18.8991 5.92662 19.4809 5.34477 20.196 5.34477C20.9112 5.34477 21.4931 5.92667 21.4931 6.6418ZM19.7705 8.8842C19.3518 9.63256 18.5852 10.0793 17.7197 10.0793C16.8543 10.0793 16.0876 9.63256 15.669 8.8842C15.5805 8.72605 15.6369 8.52613 15.795 8.43767C15.9532 8.34903 16.1532 8.4057 16.2416 8.56377C16.5427 9.10184 17.0952 9.42308 17.7197 9.42308C18.3442 9.42308 18.8967 9.10184 19.1978 8.56377C19.2863 8.4057 19.486 8.34913 19.6443 8.43767C19.8026 8.52617 19.859 8.72605 19.7705 8.8842ZM18.327 13.9739V16.5089C18.327 17.7871 17.287 18.8269 16.0089 18.8269H14.2661L15.1081 19.6689C15.2363 19.797 15.2363 20.0048 15.1082 20.1329C15.0441 20.197 14.9601 20.229 14.8762 20.229C14.7922 20.229 14.7082 20.197 14.6442 20.1329L13.242 18.7308C13.1805 18.6693 13.1459 18.5857 13.1459 18.4987C13.1459 18.4116 13.1805 18.3281 13.2421 18.2666L14.6462 16.8643C14.7743 16.7364 14.9821 16.7364 15.1102 16.8647C15.2382 16.9929 15.2381 17.2006 15.1099 17.3287L14.2668 18.1707H16.0089C16.9253 18.1707 17.6707 17.4252 17.6707 16.5089V13.9739C17.6707 13.7927 17.8176 13.6458 17.9988 13.6458C18.18 13.6458 18.327 13.7927 18.327 13.9739ZM5.673 11.026V8.49106C5.673 7.21287 6.71288 6.17305 7.99102 6.17305H9.73378L8.89181 5.33103C8.76366 5.20292 8.76366 4.99517 8.89181 4.86706C9.01988 4.73891 9.22772 4.73891 9.35578 4.86706L10.7579 6.26919C10.8195 6.33069 10.854 6.41422 10.854 6.50127C10.854 6.58831 10.8194 6.67184 10.7578 6.73334L9.35372 8.13561C9.22556 8.26358 9.01777 8.26353 8.8897 8.13528C8.76169 8.00708 8.76178 7.79933 8.89003 7.67127L9.73308 6.8293H7.99102C7.0747 6.8293 6.32925 7.57475 6.32925 8.49106V11.026C6.32925 11.2072 6.18234 11.3541 6.00113 11.3541C5.81991 11.3541 5.673 11.2072 5.673 11.026Z"/>
</mask>
<path d="M6.28022 12.3615C3.04987 12.3615 0.421875 14.9895 0.421875 18.2198C0.421875 21.4501 3.04987 24.0781 6.28022 24.0781C9.51056 24.0781 12.1386 21.4501 12.1386 18.2198C12.1386 14.9894 9.51052 12.3615 6.28022 12.3615ZM6.28022 23.4219C3.41175 23.4219 1.07812 21.0882 1.07812 18.2198C1.07812 15.3513 3.41175 13.0177 6.28022 13.0177C9.14869 13.0177 11.4823 15.3513 11.4823 18.2198C11.4823 21.0882 9.14864 23.4219 6.28022 23.4219ZM9.72539 16.7844C9.90661 16.7844 10.0535 16.9313 10.0535 17.1125C10.0535 17.8277 9.47166 18.4095 8.75648 18.4095C8.04131 18.4095 7.45945 17.8277 7.45945 17.1125C7.45945 16.9313 7.60636 16.7844 7.78758 16.7844C7.9688 16.7844 8.1157 16.9313 8.1157 17.1125C8.1157 17.4658 8.40314 17.7533 8.75648 17.7533C9.10983 17.7533 9.39727 17.4658 9.39727 17.1125C9.39727 16.9313 9.54413 16.7844 9.72539 16.7844ZM3.80391 18.4095C3.08873 18.4095 2.50688 17.8277 2.50688 17.1125C2.50688 16.9313 2.65378 16.7844 2.835 16.7844C3.01622 16.7844 3.16313 16.9313 3.16313 17.1125C3.16313 17.4658 3.45056 17.7533 3.80391 17.7533C4.15725 17.7533 4.44469 17.4658 4.44469 17.1125C4.44469 16.9313 4.59159 16.7844 4.77281 16.7844C4.95403 16.7844 5.10094 16.9313 5.10094 17.1125C5.10094 17.8277 4.51908 18.4095 3.80391 18.4095ZM8.331 21.0387C8.4195 21.1969 8.36306 21.3968 8.20491 21.4853C8.15423 21.5136 8.0992 21.5271 8.04502 21.5271C7.93003 21.5271 7.81847 21.4666 7.75837 21.3592C7.4573 20.8211 6.90473 20.4999 6.28027 20.4999C5.6558 20.4999 5.10323 20.8211 4.80216 21.3592C4.7137 21.5173 4.51397 21.5739 4.35562 21.4853C4.19747 21.3968 4.14103 21.1969 4.22953 21.0387C4.64822 20.2904 5.41486 19.8436 6.28031 19.8436C7.14577 19.8436 7.91231 20.2904 8.331 21.0387ZM17.7198 0.921875C14.4895 0.921875 11.8614 3.54987 11.8614 6.78022C11.8614 10.0106 14.4894 12.6386 17.7198 12.6386C20.9501 12.6386 23.5781 10.0105 23.5781 6.78022C23.5781 3.54992 20.9501 0.921875 17.7198 0.921875ZM17.7198 11.9823C14.8514 11.9823 12.5176 9.64864 12.5176 6.78017C12.5176 3.9117 14.8514 1.57812 17.7198 1.57812C20.5882 1.57812 22.9219 3.91175 22.9219 6.78022C22.9219 9.64869 20.5882 11.9823 17.7198 11.9823ZM15.2435 6.00102C14.8901 6.00102 14.6027 6.28845 14.6027 6.6418C14.6027 6.82302 14.4558 6.96992 14.2746 6.96992C14.0933 6.96992 13.9464 6.82302 13.9464 6.6418C13.9464 5.92662 14.5283 5.34477 15.2435 5.34477C15.9586 5.34477 16.5405 5.92662 16.5405 6.6418C16.5405 6.82302 16.3936 6.96992 16.2124 6.96992C16.0312 6.96992 15.8843 6.82302 15.8843 6.6418C15.8843 6.28845 15.5968 6.00102 15.2435 6.00102ZM21.4931 6.6418C21.4931 6.82302 21.3462 6.96992 21.165 6.96992C20.9838 6.96992 20.8369 6.82302 20.8369 6.6418C20.8369 6.28845 20.5494 6.00102 20.196 6.00102C19.8428 6.00102 19.5553 6.28845 19.5553 6.6418C19.5553 6.82302 19.4084 6.96992 19.2272 6.96992C19.046 6.96992 18.8991 6.82302 18.8991 6.6418C18.8991 5.92662 19.4809 5.34477 20.196 5.34477C20.9112 5.34477 21.4931 5.92667 21.4931 6.6418ZM19.7705 8.8842C19.3518 9.63256 18.5852 10.0793 17.7197 10.0793C16.8543 10.0793 16.0876 9.63256 15.669 8.8842C15.5805 8.72605 15.6369 8.52613 15.795 8.43767C15.9532 8.34903 16.1532 8.4057 16.2416 8.56377C16.5427 9.10184 17.0952 9.42308 17.7197 9.42308C18.3442 9.42308 18.8967 9.10184 19.1978 8.56377C19.2863 8.4057 19.486 8.34913 19.6443 8.43767C19.8026 8.52617 19.859 8.72605 19.7705 8.8842ZM18.327 13.9739V16.5089C18.327 17.7871 17.287 18.8269 16.0089 18.8269H14.2661L15.1081 19.6689C15.2363 19.797 15.2363 20.0048 15.1082 20.1329C15.0441 20.197 14.9601 20.229 14.8762 20.229C14.7922 20.229 14.7082 20.197 14.6442 20.1329L13.242 18.7308C13.1805 18.6693 13.1459 18.5857 13.1459 18.4987C13.1459 18.4116 13.1805 18.3281 13.2421 18.2666L14.6462 16.8643C14.7743 16.7364 14.9821 16.7364 15.1102 16.8647C15.2382 16.9929 15.2381 17.2006 15.1099 17.3287L14.2668 18.1707H16.0089C16.9253 18.1707 17.6707 17.4252 17.6707 16.5089V13.9739C17.6707 13.7927 17.8176 13.6458 17.9988 13.6458C18.18 13.6458 18.327 13.7927 18.327 13.9739ZM5.673 11.026V8.49106C5.673 7.21287 6.71288 6.17305 7.99102 6.17305H9.73378L8.89181 5.33103C8.76366 5.20292 8.76366 4.99517 8.89181 4.86706C9.01988 4.73891 9.22772 4.73891 9.35578 4.86706L10.7579 6.26919C10.8195 6.33069 10.854 6.41422 10.854 6.50127C10.854 6.58831 10.8194 6.67184 10.7578 6.73334L9.35372 8.13561C9.22556 8.26358 9.01777 8.26353 8.8897 8.13528C8.76169 8.00708 8.76178 7.79933 8.89003 7.67127L9.73308 6.8293H7.99102C7.0747 6.8293 6.32925 7.57475 6.32925 8.49106V11.026C6.32925 11.2072 6.18234 11.3541 6.00113 11.3541C5.81991 11.3541 5.673 11.2072 5.673 11.026Z" fill="#FF99DC"/>
<path d="M6.28022 12.3615C3.04987 12.3615 0.421875 14.9895 0.421875 18.2198C0.421875 21.4501 3.04987 24.0781 6.28022 24.0781C9.51056 24.0781 12.1386 21.4501 12.1386 18.2198C12.1386 14.9894 9.51052 12.3615 6.28022 12.3615ZM6.28022 23.4219C3.41175 23.4219 1.07812 21.0882 1.07812 18.2198C1.07812 15.3513 3.41175 13.0177 6.28022 13.0177C9.14869 13.0177 11.4823 15.3513 11.4823 18.2198C11.4823 21.0882 9.14864 23.4219 6.28022 23.4219ZM9.72539 16.7844C9.90661 16.7844 10.0535 16.9313 10.0535 17.1125C10.0535 17.8277 9.47166 18.4095 8.75648 18.4095C8.04131 18.4095 7.45945 17.8277 7.45945 17.1125C7.45945 16.9313 7.60636 16.7844 7.78758 16.7844C7.9688 16.7844 8.1157 16.9313 8.1157 17.1125C8.1157 17.4658 8.40314 17.7533 8.75648 17.7533C9.10983 17.7533 9.39727 17.4658 9.39727 17.1125C9.39727 16.9313 9.54413 16.7844 9.72539 16.7844ZM3.80391 18.4095C3.08873 18.4095 2.50688 17.8277 2.50688 17.1125C2.50688 16.9313 2.65378 16.7844 2.835 16.7844C3.01622 16.7844 3.16313 16.9313 3.16313 17.1125C3.16313 17.4658 3.45056 17.7533 3.80391 17.7533C4.15725 17.7533 4.44469 17.4658 4.44469 17.1125C4.44469 16.9313 4.59159 16.7844 4.77281 16.7844C4.95403 16.7844 5.10094 16.9313 5.10094 17.1125C5.10094 17.8277 4.51908 18.4095 3.80391 18.4095ZM8.331 21.0387C8.4195 21.1969 8.36306 21.3968 8.20491 21.4853C8.15423 21.5136 8.0992 21.5271 8.04502 21.5271C7.93003 21.5271 7.81847 21.4666 7.75837 21.3592C7.4573 20.8211 6.90473 20.4999 6.28027 20.4999C5.6558 20.4999 5.10323 20.8211 4.80216 21.3592C4.7137 21.5173 4.51397 21.5739 4.35562 21.4853C4.19747 21.3968 4.14103 21.1969 4.22953 21.0387C4.64822 20.2904 5.41486 19.8436 6.28031 19.8436C7.14577 19.8436 7.91231 20.2904 8.331 21.0387ZM17.7198 0.921875C14.4895 0.921875 11.8614 3.54987 11.8614 6.78022C11.8614 10.0106 14.4894 12.6386 17.7198 12.6386C20.9501 12.6386 23.5781 10.0105 23.5781 6.78022C23.5781 3.54992 20.9501 0.921875 17.7198 0.921875ZM17.7198 11.9823C14.8514 11.9823 12.5176 9.64864 12.5176 6.78017C12.5176 3.9117 14.8514 1.57812 17.7198 1.57812C20.5882 1.57812 22.9219 3.91175 22.9219 6.78022C22.9219 9.64869 20.5882 11.9823 17.7198 11.9823ZM15.2435 6.00102C14.8901 6.00102 14.6027 6.28845 14.6027 6.6418C14.6027 6.82302 14.4558 6.96992 14.2746 6.96992C14.0933 6.96992 13.9464 6.82302 13.9464 6.6418C13.9464 5.92662 14.5283 5.34477 15.2435 5.34477C15.9586 5.34477 16.5405 5.92662 16.5405 6.6418C16.5405 6.82302 16.3936 6.96992 16.2124 6.96992C16.0312 6.96992 15.8843 6.82302 15.8843 6.6418C15.8843 6.28845 15.5968 6.00102 15.2435 6.00102ZM21.4931 6.6418C21.4931 6.82302 21.3462 6.96992 21.165 6.96992C20.9838 6.96992 20.8369 6.82302 20.8369 6.6418C20.8369 6.28845 20.5494 6.00102 20.196 6.00102C19.8428 6.00102 19.5553 6.28845 19.5553 6.6418C19.5553 6.82302 19.4084 6.96992 19.2272 6.96992C19.046 6.96992 18.8991 6.82302 18.8991 6.6418C18.8991 5.92662 19.4809 5.34477 20.196 5.34477C20.9112 5.34477 21.4931 5.92667 21.4931 6.6418ZM19.7705 8.8842C19.3518 9.63256 18.5852 10.0793 17.7197 10.0793C16.8543 10.0793 16.0876 9.63256 15.669 8.8842C15.5805 8.72605 15.6369 8.52613 15.795 8.43767C15.9532 8.34903 16.1532 8.4057 16.2416 8.56377C16.5427 9.10184 17.0952 9.42308 17.7197 9.42308C18.3442 9.42308 18.8967 9.10184 19.1978 8.56377C19.2863 8.4057 19.486 8.34913 19.6443 8.43767C19.8026 8.52617 19.859 8.72605 19.7705 8.8842ZM18.327 13.9739V16.5089C18.327 17.7871 17.287 18.8269 16.0089 18.8269H14.2661L15.1081 19.6689C15.2363 19.797 15.2363 20.0048 15.1082 20.1329C15.0441 20.197 14.9601 20.229 14.8762 20.229C14.7922 20.229 14.7082 20.197 14.6442 20.1329L13.242 18.7308C13.1805 18.6693 13.1459 18.5857 13.1459 18.4987C13.1459 18.4116 13.1805 18.3281 13.2421 18.2666L14.6462 16.8643C14.7743 16.7364 14.9821 16.7364 15.1102 16.8647C15.2382 16.9929 15.2381 17.2006 15.1099 17.3287L14.2668 18.1707H16.0089C16.9253 18.1707 17.6707 17.4252 17.6707 16.5089V13.9739C17.6707 13.7927 17.8176 13.6458 17.9988 13.6458C18.18 13.6458 18.327 13.7927 18.327 13.9739ZM5.673 11.026V8.49106C5.673 7.21287 6.71288 6.17305 7.99102 6.17305H9.73378L8.89181 5.33103C8.76366 5.20292 8.76366 4.99517 8.89181 4.86706C9.01988 4.73891 9.22772 4.73891 9.35578 4.86706L10.7579 6.26919C10.8195 6.33069 10.854 6.41422 10.854 6.50127C10.854 6.58831 10.8194 6.67184 10.7578 6.73334L9.35372 8.13561C9.22556 8.26358 9.01777 8.26353 8.8897 8.13528C8.76169 8.00708 8.76178 7.79933 8.89003 7.67127L9.73308 6.8293H7.99102C7.0747 6.8293 6.32925 7.57475 6.32925 8.49106V11.026C6.32925 11.2072 6.18234 11.3541 6.00113 11.3541C5.81991 11.3541 5.673 11.2072 5.673 11.026Z" stroke="#FF99DC" stroke-width="0.4" mask="url(#path-1-outside-1_169_3334)"/>
</g>
<defs>
<clipPath id="clip0_169_3334">
<rect width="24" height="24" fill="white" transform="translate(0 0.5)"/>
</clipPath>
</defs>
</svg>
