<svg width="20" height="20" viewBox="0 0 20 20" fill="none" xmlns="http://www.w3.org/2000/svg">
<path d="M10 17.0312C9.8993 17.0312 9.79973 17.0055 9.70934 16.954C9.36258 16.756 1.21094 12.0473 1.21094 7.65625C1.21094 5.0716 3.3132 2.96875 5.89844 2.96875C7.66082 2.96875 9.20004 3.94664 10 5.38859C10.8 3.94664 12.3392 2.96875 14.1016 2.96875C16.6868 2.96875 18.7891 5.0716 18.7891 7.65625C18.7891 12.0473 10.6374 16.756 10.2907 16.954C10.2003 17.0055 10.1007 17.0312 10 17.0312Z" fill="url(#paint0_linear_45_1435)"/>
<path d="M8.82812 13.5157C8.80754 13.5157 8.78578 13.5145 8.76402 13.5122C8.52027 13.4853 8.31887 13.3096 8.25934 13.0716L7.47199 9.92108L7.00852 10.848C6.90895 11.0466 6.70641 11.1719 6.48438 11.1719H0.585938C0.26207 11.1719 0 10.9098 0 10.586C0 10.2621 0.26207 10 0.585938 10H6.12273L7.13211 7.98015C7.24082 7.76155 7.46512 7.63569 7.72035 7.65972C7.9641 7.68659 8.16551 7.8623 8.22504 8.1003L9.01238 11.2508L9.47586 10.3239C9.57543 10.1253 9.77797 10 10 10H10.8102L11.8196 7.98015C12.0188 7.58304 12.6687 7.58304 12.8679 7.98015L13.8773 10H19.4141C19.7379 10 20 10.2621 20 10.586C20 10.9098 19.7379 11.1719 19.4141 11.1719H13.5156C13.2936 11.1719 13.0911 11.0466 12.9915 10.848L12.3438 9.55257L11.696 10.848C11.5964 11.0466 11.3939 11.1719 11.1719 11.1719H10.3616L9.35227 13.1918C9.2527 13.3915 9.04785 13.5157 8.82812 13.5157Z" fill="url(#paint1_linear_45_1435)"/>
<defs>
<linearGradient id="paint0_linear_45_1435" x1="10" y1="17.0312" x2="10" y2="2.96875" gradientUnits="userSpaceOnUse">
<stop stop-color="#FD3A84"/>
<stop offset="1" stop-color="#FFA68D"/>
</linearGradient>
<linearGradient id="paint1_linear_45_1435" x1="10" y1="13.5157" x2="10" y2="7.65679" gradientUnits="userSpaceOnUse">
<stop stop-color="#FFC2CC"/>
<stop offset="1" stop-color="#FFF2F4"/>
</linearGradient>
</defs>
</svg>
