<svg width="20" height="20" viewBox="0 0 20 20" fill="none" xmlns="http://www.w3.org/2000/svg">
<g clip-path="url(#clip0_45_1442)">
<path d="M9.9999 19.4118C15.1979 19.4118 19.4117 15.198 19.4117 10C19.4117 4.80205 15.1979 0.588257 9.9999 0.588257C4.80193 0.588257 0.588135 4.80205 0.588135 10C0.588135 15.198 4.80193 19.4118 9.9999 19.4118Z" fill="#F9F2E1"/>
<path d="M9.9998 18.8236C14.8729 18.8236 18.8233 14.8731 18.8233 10C18.8233 5.12694 14.8729 1.17651 9.9998 1.17651C5.1267 1.17651 1.17627 5.12694 1.17627 10C1.17627 14.8731 5.1267 18.8236 9.9998 18.8236Z" fill="url(#paint0_linear_45_1442)"/>
<path d="M14.1175 7.64709C13.967 7.64709 13.8165 7.58964 13.7016 7.47475L12.5251 6.29828C12.2953 6.0685 12.2953 5.69626 12.5251 5.46648L13.7016 4.29001C13.9314 4.06023 14.3036 4.06023 14.5334 4.29001C14.7632 4.51979 14.7632 4.89204 14.5334 5.12181L13.7728 5.88238L14.5334 6.64295C14.7632 6.87274 14.7632 7.24498 14.5334 7.47475C14.4185 7.58964 14.268 7.64709 14.1175 7.64709Z" fill="url(#paint1_linear_45_1442)"/>
<path d="M8.82334 7.64709C8.67284 7.64709 8.52233 7.58964 8.40744 7.47475C8.17766 7.24497 8.17766 6.87273 8.40744 6.64295L9.16802 5.88238L8.40744 5.12181C8.17766 4.89203 8.17766 4.51979 8.40744 4.29001C8.63723 4.06023 9.00947 4.06023 9.23924 4.29001L10.4157 5.46648C10.6455 5.69626 10.6455 6.0685 10.4157 6.29828L9.23924 7.47475C9.12436 7.58964 8.97385 7.64709 8.82334 7.64709Z" fill="url(#paint2_linear_45_1442)"/>
<path d="M15.2941 8.82353C15.2941 9.92941 14.8647 10.9647 14.0824 11.7353C13.9118 11.9059 13.7235 12.0647 13.5294 12.2V11.1235C13.5294 10.9706 13.5 10.8235 13.4471 10.6941C13.4118 10.6176 13.3706 10.547 13.3236 10.4765C13.2883 10.4294 13.253 10.3882 13.2176 10.347C13.0118 10.1353 12.7235 10 12.4059 10H9.94706C9.62943 10 9.34119 10.1353 9.13533 10.347C9.1 10.3882 9.0647 10.4294 9.02941 10.4765C8.98238 10.5412 8.9412 10.6117 8.9118 10.6882C8.85295 10.8235 8.82354 10.9706 8.82354 11.1235V12.2C7.72943 11.4353 7.05884 10.1706 7.05884 8.82353C7.05884 8.5 7.32355 8.23529 7.64707 8.23529H14.7059C15.0294 8.23529 15.2941 8.5 15.2941 8.82353Z" fill="url(#paint3_linear_45_1442)"/>
<path d="M13.5294 11.1235V12.9412C13.5294 14.2412 12.4764 15.2941 11.1764 15.2941C9.87642 15.2941 8.82349 14.2412 8.82349 12.9412V11.1235C8.82349 10.9706 8.85289 10.8235 8.91173 10.6882C8.94114 10.6118 8.98232 10.5412 9.02935 10.4765C9.06465 10.4294 9.09994 10.3882 9.13526 10.347C9.34113 10.1353 9.62937 10 9.947 10H12.4059C12.7235 10 13.0117 10.1353 13.2176 10.347C13.2529 10.3882 13.2882 10.4294 13.3235 10.4765C13.3705 10.5471 13.4117 10.6176 13.447 10.6941C13.5 10.8235 13.5294 10.9706 13.5294 11.1235Z" fill="url(#paint4_linear_45_1442)"/>
</g>
<defs>
<linearGradient id="paint0_linear_45_1442" x1="1.17627" y1="10" x2="18.8233" y2="10" gradientUnits="userSpaceOnUse">
<stop stop-color="#FFA18D"/>
<stop offset="1" stop-color="#FD3E84"/>
</linearGradient>
<linearGradient id="paint1_linear_45_1442" x1="12.3528" y1="5.88236" x2="14.7057" y2="5.88236" gradientUnits="userSpaceOnUse">
<stop stop-color="#FFD2DA"/>
<stop offset="1" stop-color="#FFECE6"/>
</linearGradient>
<linearGradient id="paint2_linear_45_1442" x1="8.23514" y1="5.88236" x2="10.588" y2="5.88236" gradientUnits="userSpaceOnUse">
<stop stop-color="#FFD2DA"/>
<stop offset="1" stop-color="#FFECE6"/>
</linearGradient>
<linearGradient id="paint3_linear_45_1442" x1="7.05895" y1="10.2176" x2="15.294" y2="10.2176" gradientUnits="userSpaceOnUse">
<stop stop-color="#FFD2DA"/>
<stop offset="1" stop-color="#FFECE6"/>
</linearGradient>
<linearGradient id="paint4_linear_45_1442" x1="8.82355" y1="12.647" x2="13.5293" y2="12.647" gradientUnits="userSpaceOnUse">
<stop stop-color="#FFF4F0"/>
<stop offset="1" stop-color="#FF4E6B"/>
</linearGradient>
<clipPath id="clip0_45_1442">
<rect width="20" height="20" fill="white"/>
</clipPath>
</defs>
</svg>
