<svg width="20" height="21" viewBox="0 0 20 21" fill="none" xmlns="http://www.w3.org/2000/svg">
<g clip-path="url(#clip0_44_1268)">
<path d="M12.5096 4.29994C11.7615 4.29994 11.1551 4.9064 11.1551 5.65448V4.12325C11.1551 3.37516 10.5486 2.76871 9.80051 2.76871C9.05242 2.76871 8.44597 3.37516 8.44597 4.12325V3.51879C8.44597 2.7707 7.83951 2.16425 7.09143 2.16425C6.34334 2.16425 5.73688 2.7707 5.73688 3.51879V4.72767C5.73688 3.97958 5.13043 3.37313 4.38234 3.37313C3.63426 3.37313 3.0278 3.97958 3.0278 4.72767V7.08488C3.0278 7.37018 3.03585 7.66293 3.05398 7.95931L2.63457 7.5399C2.04322 6.94855 1.08445 6.94855 0.493139 7.5399C-0.360167 8.39321 -0.180845 9.57699 1.62748 11.3853C3.59696 13.3548 5.47453 14.0693 8.41278 14.0693C12.3825 14.0693 13.5819 11.3575 13.7784 9.4358C13.9539 7.71799 14.4269 4.29994 12.5096 4.29994Z" fill="url(#paint0_linear_44_1268)"/>
<path d="M5.73673 7.00449C5.48366 7.00449 5.27856 6.79939 5.27856 6.54633V4.72776C5.27856 4.47469 5.48366 4.26959 5.73673 4.26959C5.9898 4.26959 6.1949 4.47469 6.1949 4.72776V6.54633C6.1949 6.79935 5.9898 7.00449 5.73673 7.00449Z" fill="#FFB400"/>
<path d="M8.44572 7.0045C8.19265 7.0045 7.98755 6.7994 7.98755 6.54634V4.12327C7.98755 3.87024 8.19265 3.6651 8.44572 3.6651C8.69878 3.6651 8.90388 3.87024 8.90388 4.12327V6.5463C8.90388 6.79936 8.69878 7.0045 8.44572 7.0045Z" fill="#FFB400"/>
<path d="M11.1549 7.1393C10.9019 7.1393 10.6968 6.9342 10.6968 6.68113V5.65452C10.6968 5.40145 10.9019 5.19635 11.1549 5.19635C11.408 5.19635 11.6131 5.40145 11.6131 5.65452V6.68113C11.6131 6.93416 11.408 7.1393 11.1549 7.1393Z" fill="#FFB400"/>
<path d="M6.71549 8.42435C6.2031 8.1418 5.56146 8.41084 5.40326 8.97419C5.20891 9.66634 5.11597 10.4905 5.11597 11.4877C5.11597 12.2688 5.17473 12.9958 5.2974 13.6843C6.21362 13.9526 7.22668 14.0692 8.4127 14.0692C11.0614 14.0692 12.4765 12.862 13.1836 11.4876C13.1836 11.4876 8.86951 10.5883 7.1525 9.45809C7.26628 9.05479 7.08246 8.6267 6.71549 8.42435Z" fill="#FFB400"/>
<path d="M19.6342 14.1724C19.1052 13.6435 18.2475 13.6435 17.7186 14.1724L18.8013 13.0897C19.3303 12.5607 19.3303 11.703 18.8013 11.174C18.2723 10.645 17.4147 10.645 16.8857 11.174L17.3131 10.7466C17.8421 10.2176 17.8421 9.35997 17.3131 8.83101C16.7841 8.30204 15.9265 8.30204 15.3975 8.83101L14.5427 9.68583C15.0717 9.15683 15.0716 8.29918 14.5427 7.77021C14.0137 7.24121 13.156 7.24125 12.627 7.77021L10.9602 9.43699C10.7585 9.63874 10.5572 9.85141 10.3604 10.0738V9.48069C10.3604 8.6444 9.68251 7.96647 8.84621 7.96647C7.63944 7.96647 6.9292 8.93033 6.9292 11.4877C6.9292 14.273 7.75167 16.1058 9.82932 18.1835C12.6363 20.9905 15.4019 19.9211 16.8997 18.7012C18.2385 17.6107 20.99 15.5282 19.6342 14.1724Z" fill="url(#paint1_linear_44_1268)"/>
<path d="M13.2568 11.4299C13.1395 11.4299 13.0223 11.3852 12.9328 11.2957C12.7539 11.1168 12.7539 10.8267 12.9328 10.6478L14.2187 9.36182C14.3976 9.18294 14.6876 9.18294 14.8666 9.36182C15.0456 9.54075 15.0456 9.83087 14.8666 10.0098L13.5807 11.2957C13.4913 11.3852 13.374 11.4299 13.2568 11.4299Z" fill="#FCC415"/>
<path d="M15.1723 13.3455C15.055 13.3455 14.9378 13.3008 14.8483 13.2114C14.6694 13.0324 14.6694 12.7424 14.8483 12.5634L16.5617 10.85C16.7406 10.6712 17.0307 10.6712 17.2096 10.85C17.3885 11.029 17.3885 11.3191 17.2096 11.498L15.4963 13.2114C15.4068 13.3008 15.2896 13.3455 15.1723 13.3455Z" fill="#FCC415"/>
<path d="M16.9926 15.3565C16.8754 15.3565 16.7581 15.3117 16.6686 15.2223C16.4897 15.0434 16.4897 14.7533 16.6686 14.5743L17.3946 13.8484C17.5735 13.6695 17.8635 13.6695 18.0425 13.8484C18.2214 14.0273 18.2214 14.3174 18.0425 14.4964L17.3166 15.2223C17.2271 15.3117 17.1099 15.3565 16.9926 15.3565Z" fill="#FCC415"/>
<path d="M16.7747 2.2522V3.30941C16.7747 3.97854 16.2323 4.52097 15.5631 4.52097C14.894 4.52097 14.3516 3.97858 14.3516 3.30941V2.2522C14.3516 1.58312 14.894 1.04065 15.5631 1.04065C16.2323 1.04065 16.7747 1.58308 16.7747 2.2522Z" fill="url(#paint2_linear_44_1268)"/>
<path d="M18.6233 7.32014H17.566C16.8969 7.32014 16.3545 6.77775 16.3545 6.10859C16.3545 5.43942 16.8969 4.89703 17.566 4.89703H18.6233C19.2923 4.89703 19.8348 5.43942 19.8348 6.10859C19.8348 6.77775 19.2924 7.32014 18.6233 7.32014Z" fill="url(#paint3_linear_44_1268)"/>
</g>
<defs>
<linearGradient id="paint0_linear_44_1268" x1="6.98003" y1="15.2654" x2="6.98003" y2="1.27927" gradientUnits="userSpaceOnUse">
<stop stop-color="#FFC100"/>
<stop offset="1" stop-color="#FFE093"/>
</linearGradient>
<linearGradient id="paint1_linear_44_1268" x1="13.4646" y1="20.4045" x2="13.4646" y2="6.65499" gradientUnits="userSpaceOnUse">
<stop stop-color="#FCD843"/>
<stop offset="1" stop-color="#FCECAB"/>
</linearGradient>
<linearGradient id="paint2_linear_44_1268" x1="15.5631" y1="4.6085" x2="15.5631" y2="1.48204" gradientUnits="userSpaceOnUse">
<stop stop-color="#FF7081"/>
<stop offset="1" stop-color="#FF9FAA"/>
</linearGradient>
<linearGradient id="paint3_linear_44_1268" x1="18.0947" y1="7.37285" x2="18.0947" y2="5.20185" gradientUnits="userSpaceOnUse">
<stop stop-color="#00D1E8"/>
<stop offset="1" stop-color="#A2E9F4"/>
</linearGradient>
<clipPath id="clip0_44_1268">
<rect width="20" height="20" fill="white" transform="translate(0 0.5)"/>
</clipPath>
</defs>
</svg>
