<svg width="24" height="25" viewBox="0 0 24 25" fill="none" xmlns="http://www.w3.org/2000/svg">
<path d="M12 21.5C16.9706 21.5 21 17.4706 21 12.5C21 7.52944 16.9706 3.5 12 3.5C7.02944 3.5 3 7.52944 3 12.5C3 17.4706 7.02944 21.5 12 21.5Z" stroke="#FF99DC" stroke-width="1.1" stroke-miterlimit="10" stroke-linecap="round" stroke-linejoin="round"/>
<path d="M15.375 11.375C16.162 11.375 16.8 10.737 16.8 9.95002C16.8 9.16302 16.162 8.52502 15.375 8.52502C14.5879 8.52502 13.95 9.16302 13.95 9.95002C13.95 10.737 14.5879 11.375 15.375 11.375Z" stroke="#FF99DC" stroke-width="1.1" stroke-miterlimit="10" stroke-linecap="round" stroke-linejoin="round"/>
<path d="M8.62495 11.375C9.41196 11.375 10.05 10.737 10.05 9.95002C10.05 9.16302 9.41196 8.52502 8.62495 8.52502C7.83795 8.52502 7.19995 9.16302 7.19995 9.95002C7.19995 10.737 7.83795 11.375 8.62495 11.375Z" stroke="#FF99DC" stroke-width="1.1" stroke-miterlimit="10" stroke-linecap="round" stroke-linejoin="round"/>
<path d="M17.5125 14.75C16.65 16.4375 14.475 17.6375 12 17.6375C9.48745 17.6375 7.31245 16.4375 6.44995 14.7125" stroke="#FF99DC" stroke-width="1.1" stroke-miterlimit="10" stroke-linecap="round" stroke-linejoin="round"/>
<path d="M15.375 16.925V18.3125C15.375 19.1 14.6625 19.6625 13.875 19.6625C13.0875 19.6625 12.375 18.95 12.375 18.2V17.75" stroke="#FF99DC" stroke-width="1.1" stroke-miterlimit="10" stroke-linecap="round" stroke-linejoin="round"/>
<path d="M13.875 18.125V17.525" stroke="#FF99DC" stroke-width="1.1" stroke-miterlimit="10" stroke-linecap="round" stroke-linejoin="round"/>
</svg>
